<?xml version="1.0" encoding="UTF-8"?>
<svg id="SvgjsSvg1021" xmlns="http://www.w3.org/2000/svg" version="1.1" viewBox="0 0 512 512">
  <!-- Generator: Adobe Illustrator 29.5.1, SVG Export Plug-In . SVG Version: 2.1.0 Build 141)  -->
  <defs>
    <style>
      .st0 {
        fill: #fff548;
        stroke: #df8e00;
      }

      .st0, .st1, .st2, .st3, .st4, .st5 {
        stroke-miterlimit: 10;
      }

      .st0, .st4 {
        stroke-width: 2.56px;
      }

      .st6, .st3 {
        fill: #004c1d;
      }

      .st1 {
        fill: none;
        stroke: #b5dfb1;
      }

      .st1, .st2, .st3, .st5 {
        stroke-width: 3.58px;
      }

      .st2 {
        fill: #0500d5;
        stroke: #11005a;
      }

      .st3 {
        stroke: #b3ddb0;
      }

      .st4 {
        fill: #b3ddb0;
        stroke: #004c1d;
      }

      .st7 {
        fill: #fff8ca;
      }

      .st5 {
        fill: #ffc9c7;
        stroke: #ff93b6;
      }

      .st8 {
        fill: #c7fbff;
      }
    </style>
  </defs>
  <rect class="st7" x="0" y="0" width="512" height="512"/>
  <polygon id="SvgjsPolygon1020" class="st6" points="256 0 0 0 0 256 0 512 256 512 512 512 512 256 464.74 256 412.12 313.34 412.12 402.36 301.68 402.36 256 456.13 210.32 402.36 99.89 402.36 99.89 313.34 47.27 256 99.89 198.67 99.89 109.64 210.32 109.64 256 55.88 301.68 109.64 412.12 109.64 412.12 198.67 464.74 256 512 256 512 0 256 0"/>
  <g id="SvgjsG1019">
    <g>
      <path class="st4" d="M128.91,30.41c-55.07,1.27-43.59,59.03-43.59,59.03l9.75.61s-7.34-52.62,35.59-49.66c42.93,2.96,45.44,49.05,45.44,49.05l15.22-.29s-7.34-60.01-62.41-58.74Z"/>
      <path class="st4" d="M381.35,40.39c42.93-2.96,35.59,49.66,35.59,49.66l9.75-.61s11.47-57.76-43.59-59.03c-55.07-1.27-62.41,58.74-62.41,58.74l15.22.29s2.51-46.09,45.44-49.05Z"/>
      <path class="st4" d="M416.94,421.95s7.34,52.62-35.59,49.66-45.44-49.05-45.44-49.05l-15.22.29s7.34,60.01,62.41,58.74c55.07-1.27,43.59-59.03,43.59-59.03l-9.75-.61h0Z"/>
      <path class="st4" d="M130.66,471.61c-42.93,2.96-35.59-49.66-35.59-49.66l-9.75.61s-11.47,57.76,43.59,59.03c55.07,1.27,62.41-58.74,62.41-58.74l-15.22-.29s-2.51,46.09-45.44,49.05h0Z"/>
    </g>
  </g>
  <g id="SvgjsG1018">
    <g>
      <path class="st4" d="M37.17,129.03c-2.55,31.31,43.14,52.42,43.14,52.42v-13.22s-34.29-11.19-32.05-35.95c2.6-28.76,32.05-25.75,32.05-25.75v-7.38s-40.59-1.43-43.14,29.88Z"/>
      <path class="st4" d="M474.83,129.03c-2.55-31.31-43.14-29.88-43.14-29.88v7.38s29.45-3.01,32.05,25.75c2.24,24.75-32.05,35.95-32.05,35.95v13.22s45.69-21.11,43.14-52.42Z"/>
      <path class="st4" d="M431.7,330.56v13.22s34.29,11.19,32.05,35.95c-2.6,28.76-32.05,25.75-32.05,25.75v7.38s40.59,1.43,43.14-29.88c2.55-31.31-43.14-52.42-43.14-52.42h0Z"/>
      <path class="st4" d="M37.17,382.97c2.55,31.31,43.14,29.88,43.14,29.88v-7.38s-29.45,3.01-32.05-25.75c-2.24-24.75,32.05-35.95,32.05-35.95v-13.22s-45.69,21.11-43.14,52.42Z"/>
    </g>
  </g>
  <g id="SvgjsG1017">
    <g>
      <path class="st4" d="M86.76,39.28c-16.84-3.38-32.81,2.4-32.81,2.4l-24.27-11.29,10.4,26s-7.19,6.27-4.51,33.19c2.68,26.92,44.74,44.51,44.74,44.51v-12.54s-51.4-28.91-26.62-63.4c10.91-15.19,29.12-13.92,43.59-4.42,18.4,12.07,32.12,35.59,32.12,35.59l14.07-.41s-8.43-14.87-20.34-26.92c-11.66-11.8-26.69-20.76-36.38-22.7h0Z"/>
      <path class="st4" d="M414.72,53.72c14.47-9.49,32.68-10.76,43.59,4.42,24.78,34.49-26.62,63.4-26.62,63.4v12.54s42.07-17.59,44.74-44.51c2.68-26.92-4.51-33.19-4.51-33.19l10.4-26-24.27,11.29s-15.97-5.77-32.81-2.4c-9.68,1.94-24.72,10.91-36.38,22.7-11.91,12.05-20.34,26.92-20.34,26.92l14.07.41s13.73-23.53,32.12-35.59h.01Z"/>
      <path class="st4" d="M476.44,422.42c-2.68-26.92-44.74-44.51-44.74-44.51v12.54s51.4,28.91,26.62,63.4c-10.91,15.19-29.12,13.92-43.59,4.42-18.4-12.07-32.12-35.59-32.12-35.59l-14.07.41s8.43,14.87,20.34,26.92c11.66,11.8,26.69,20.76,36.38,22.7,16.84,3.38,32.81-2.4,32.81-2.4l24.27,11.29-10.4-26s7.19-6.27,4.51-33.19h-.01Z"/>
      <path class="st4" d="M97.28,458.28c-14.47,9.49-32.68,10.76-43.59-4.42-24.78-34.49,26.62-63.4,26.62-63.4v-12.54s-42.07,17.59-44.74,44.51c-2.68,26.92,4.51,33.19,4.51,33.19l-10.4,26,24.27-11.29s15.97,5.77,32.81,2.4c9.68-1.94,24.72-10.91,36.38-22.7,11.91-12.05,20.34-26.92,20.34-26.92l-14.07-.41s-13.73,23.53-32.12,35.59h-.01Z"/>
    </g>
  </g>
  <path id="SvgjsPath1016" class="st3" d="M431.7,192.85v-103.4l-117.03-.33-58.67-63.49h0l-58.67,63.49-117.03.33v103.4l-54.67,63.15,54.67,63.15v103.4l117.03.33,58.67,63.49,58.67-63.49,117.03-.33v-103.4l54.67-63.15-54.67-63.15h0ZM412.12,313.34v89.02h-110.44l-45.68,53.77-45.68-53.77h-110.44v-89.02l-50.84-57.33,50.84-57.33v-89.02h110.44l45.68-53.77,45.68,53.77h110.44v89.02l50.84,57.33-50.84,57.33Z"/>
  <g id="SvgjsG1015">
    <g>
      <polygon class="st8" points="399.36 256 399 253.86 382.25 237.8 372.15 209.57 343.02 204.07 311.58 202.78 306.07 168.96 301.94 146.48 283.31 140.92 262.48 132.94 256 123.76 249.52 132.94 228.7 140.92 210.06 146.48 205.93 168.96 200.42 202.78 168.99 204.07 139.85 209.57 129.75 237.8 113 253.86 112.65 256 256 256 256 256 399.36 256"/>
      <polygon class="st8" points="112.65 256 113 258.15 129.75 274.21 139.85 302.43 168.99 307.94 200.42 309.22 205.93 343.04 210.06 365.53 228.7 371.09 249.52 379.06 256 388.24 262.48 379.06 283.31 371.09 301.94 365.53 306.07 343.04 311.58 309.22 343.02 307.94 372.15 302.43 382.25 274.21 399 258.15 399.36 256 256 256 112.65 256"/>
    </g>
  </g>
  <g id="SvgjsG1014">
    <path class="st2" d="M99.29,256.16c4.18.85,12.55,3.75,19.78,13.61,10.1,13.77,3.88,30.87,25.8,39.97,20.7,4.77,33.75,3.14,33.75,3.14l1.77-8.67s-24.06,1.48-37.92-7.6c-7.67-5.02-8.82-21.16-14.53-30.75-3.5-5.88-10.25-9.81-10.25-9.81v-.12s6.74-3.93,10.25-9.81c5.71-9.59,6.86-25.72,14.53-30.75,13.87-9.08,37.92-7.6,37.92-7.6l-1.77-8.67s-13.05-1.64-33.75,3.14c-21.92,9.1-15.7,26.21-25.8,39.97-7.23,9.86-15.61,12.76-19.78,13.61v.34Z"/>
    <path class="st2" d="M394.31,256.06s-6.74,3.93-10.25,9.81c-5.71,9.59-6.86,25.72-14.53,30.75-13.87,9.08-37.92,7.6-37.92,7.6l1.77,8.67s13.05,1.64,33.75-3.14c21.92-9.1,15.7-26.21,25.8-39.97,7.23-9.86,15.61-12.84,19.78-13.69v-.08c-4.17-.85-12.55-3.91-19.78-13.77-10.1-13.77-3.88-30.87-25.8-39.97-20.7-4.77-33.75-3.14-33.75-3.14l-1.77,8.67s24.06-1.48,37.92,7.6c7.67,5.02,8.82,21.16,14.53,30.75,3.5,5.88,10.25,9.81,10.25,9.81v.12-.02Z"/>
    <path class="st2" d="M304.21,142.52c-14.23-9.33-22.18-6.73-33.35-9.64s-14.87-20.34-14.87-20.34h0s-3.7,17.44-14.87,20.34c-11.17,2.91-19.12.31-33.35,9.64s-7.95,55.53-7.95,55.53l11.78-3.06s-8.87-35.03,1.38-43.75,31.31-6.64,37.12-12.82c5.81-6.18,5.89-10.02,5.89-10.02h0s.08,3.84,5.89,10.02c5.81,6.18,26.87,4.1,37.12,12.82s1.38,43.75,1.38,43.75l11.78,3.06s6.27-46.19-7.95-55.53Z"/>
    <path class="st2" d="M300.39,317.01s8.87,35.03-1.38,43.75-31.31,6.64-37.12,12.82-5.89,10.02-5.89,10.02c0,0-.08-3.84-5.89-10.02s-26.87-4.1-37.12-12.82-1.38-43.75-1.38-43.75l-11.78-3.06s-6.27,46.19,7.95,55.53c14.23,9.33,22.18,6.73,33.35,9.64,11.17,2.91,14.87,20.34,14.87,20.34,0,0,3.7-17.44,14.87-20.34,11.17-2.91,19.12-.31,33.35-9.64,14.23-9.33,7.95-55.53,7.95-55.53l-11.78,3.06Z"/>
  </g>
  <g id="SvgjsG1013">
    <path class="st2" d="M215.82,189.92c-13.8-13.58-56.45-27.45-56.45-27.45,0,0,8.01,35.56,24.48,51.14,9.63,9.12,47.99,34.16,47.99,34.16l12.29-16.12s-14.5-28.16-28.3-41.74h0Z"/>
    <path class="st2" d="M328.16,213.61c16.46-15.59,24.48-51.14,24.48-51.14,0,0-42.65,13.87-56.45,27.45-13.8,13.58-28.3,41.74-28.3,41.74l12.29,16.12s38.36-25.05,47.99-34.16h-.01Z"/>
    <path class="st2" d="M328.16,298.39c-9.63-9.12-47.99-34.16-47.99-34.16l-12.29,16.12s14.5,28.16,28.3,41.74,56.45,27.45,56.45,27.45c0,0-8.01-35.56-24.48-51.14h.01Z"/>
    <path class="st2" d="M183.84,298.39c-16.46,15.59-24.48,51.14-24.48,51.14,0,0,42.65-13.87,56.45-27.45,13.8-13.58,28.3-41.74,28.3-41.74l-12.29-16.12s-38.37,25.05-47.99,34.16h0Z"/>
  </g>
  <g id="SvgjsG1012">
    <g>
      <path class="st5" d="M241.73,212.37c4.95,3.88,9.66,16.72,9.66,16.72l1.71,1.18,1.16-.3,1.99-.15,2.65.45,1.71-1.18s4.72-12.84,9.66-16.72c4.95-3.88,14.87-13.37,16.37-19.32.6-2.38.99-6.65-2.55-8.46-6.5-2.54-9.69,2.91-9.69,2.91,0,0-.72-7.37-2.55-9.51-3.41-3.97-8.21-3.01-11.04-.49-1.94,1.73-4.82,8.41-4.82,8.41,0,0-2.88-6.68-4.82-8.41-2.83-2.52-7.63-3.49-11.04.49-1.83,2.13-2.55,9.51-2.55,9.51,0,0-3.19-5.44-9.69-2.91-3.54,1.81-3.15,6.08-2.55,8.46,1.5,5.96,11.42,15.45,16.37,19.32h.02Z"/>
      <path class="st5" d="M270.27,299.63c-4.95-3.88-9.66-16.72-9.66-16.72l-1.71-1.18-2.98-.12-2.82.12-1.71,1.18s-4.72,12.84-9.66,16.72c-4.95,3.88-14.87,13.37-16.37,19.32-.6,2.38-.99,6.65,2.55,8.46,6.5,2.54,9.69-2.91,9.69-2.91,0,0,.72,7.37,2.55,9.51,3.41,3.97,8.21,3.01,11.04.49,1.94-1.73,4.82-8.41,4.82-8.41,0,0,2.88,6.68,4.82,8.41,2.83,2.52,7.63,3.49,11.04-.49,1.83-2.13,2.55-9.51,2.55-9.51,0,0,3.19,5.44,9.69,2.91,3.54-1.81,3.15-6.08,2.55-8.46-1.5-5.96-11.42-15.45-16.37-19.32h-.02Z"/>
      <path class="st5" d="M325.5,256c1.51-.68,6.51-2.98,7.97-4.62,2.52-2.83,3.49-7.63-.49-11.04-2.13-1.83-9.51-2.55-9.51-2.55,0,0,5.44-3.19,2.91-9.69-1.81-3.54-6.08-3.15-8.46-2.55-5.96,1.5-15.45,11.42-19.32,16.37-3.88,4.95-16.72,9.66-16.72,9.66l-1.18,1.71,1.67,2.71-1.67,2.71,1.18,1.71s12.84,4.72,16.72,9.66c3.88,4.95,13.37,14.87,19.32,16.37,2.38.6,6.65.99,8.46-2.55,2.54-6.5-2.91-9.69-2.91-9.69,0,0,7.37-.72,9.51-2.55,3.97-3.41,3.01-8.21.49-11.04-1.46-1.64-6.46-3.95-7.97-4.62Z"/>
      <path class="st5" d="M231.3,258.71l-1.67-2.71,1.67-2.71-1.18-1.71s-12.84-4.72-16.72-9.66c-3.88-4.95-13.37-14.87-19.32-16.37-2.38-.6-6.65-.99-8.46,2.55-2.54,6.5,2.91,9.69,2.91,9.69,0,0-7.37.72-9.51,2.55-3.97,3.41-3.01,8.21-.49,11.04,1.46,1.64,6.46,3.95,7.97,4.62-1.51.68-6.51,2.98-7.97,4.62-2.52,2.83-3.49,7.63.49,11.04,2.13,1.83,9.51,2.55,9.51,2.55,0,0-5.44,3.19-2.91,9.69,1.81,3.54,6.08,3.15,8.46,2.55,5.96-1.5,15.45-11.42,19.32-16.37,3.88-4.95,16.72-9.66,16.72-9.66l1.18-1.71Z"/>
    </g>
  </g>
  <circle class="st0" cx="256" cy="256" r="27.3"/>
  <path id="SvgjsPath1011" class="st1" d="M0,0v512h512V0H0ZM486.36,486.36H25.64V25.64h460.72v460.72Z"/>
</svg>