<svg xmlns="http://www.w3.org/2000/svg" version="1.1" xmlns:xlink="http://www.w3.org/1999/xlink" width="1007" height="1007"><svg id="SvgjsSvg1021" xmlns="http://www.w3.org/2000/svg" viewBox="0 0 1007 1007">
  <defs>
    <style>
      .cls-1, .cls-2 {
        fill: #004c1d;
      }

      .cls-2 {
        stroke: #b3ddb0;
      }

      .cls-2, .cls-3, .cls-4, .cls-5, .cls-6, .cls-7 {
        stroke-miterlimit: 10;
      }

      .cls-2, .cls-3, .cls-4, .cls-7 {
        stroke-width: 7px;
      }

      .cls-8 {
        fill: #fff8ca;
      }

      .cls-3 {
        fill: #ffc9c7;
        stroke: #ff93b6;
      }

      .cls-4 {
        fill: #0500d5;
        stroke: #11005a;
      }

      .cls-5 {
        fill: #b3ddb0;
        stroke: #004c1d;
      }

      .cls-5, .cls-6 {
        stroke-width: 5px;
      }

      .cls-6 {
        fill: #fff548;
        stroke: #df8e00;
      }

      .cls-9 {
        fill: #c7fbff;
      }

      .cls-7 {
        fill: none;
        stroke: #b5dfb1;
      }
    </style>
  </defs>
  <rect class="cls-8" x="3.5" y="3.5" width="1000" height="1000"></rect>
  <polygon id="SvgjsPolygon1020" data-name="green bg" class="cls-1" points="503.5 3.5 3.5 3.5 3.5 503.5 3.5 1003.5 503.5 1003.5 1003.5 1003.5 1003.5 503.5 911.19 503.5 808.42 615.48 808.42 789.36 592.71 789.36 503.5 894.37 414.29 789.36 198.58 789.36 198.58 615.48 95.81 503.5 198.58 391.52 198.58 217.64 414.29 217.64 503.5 112.63 592.71 217.64 808.42 217.64 808.42 391.52 911.19 503.5 1003.5 503.5 1003.5 3.5 503.5 3.5"></polygon>
  <g id="SvgjsG1019" data-name="curly top">
    <g>
      <path class="cls-5" d="M255.27,62.89c-107.55,2.49-85.14,115.29-85.14,115.29l19.04,1.2s-14.34-102.77,69.51-97c83.85,5.78,88.76,95.8,88.76,95.8l29.73-.58s-14.34-117.2-121.89-114.72Z"></path>
      <path class="cls-5" d="M748.32,82.38c83.85-5.78,69.51,97,69.51,97l19.04-1.2s22.41-112.8-85.14-115.29c-107.55-2.49-121.89,114.72-121.89,114.72l29.73.58s4.9-90.02,88.76-95.8Z"></path>
      <path class="cls-5" d="M817.83,827.62s14.34,102.77-69.51,97c-83.85-5.78-88.76-95.8-88.76-95.8l-29.73.58s14.34,117.2,121.89,114.72c107.55-2.49,85.14-115.29,85.14-115.29l-19.04-1.2Z"></path>
      <path class="cls-5" d="M258.68,924.62c-83.85,5.78-69.51-97-69.51-97l-19.04,1.2s-22.41,112.8,85.14,115.29c107.55,2.49,121.89-114.72,121.89-114.72l-29.73-.58s-4.9,90.02-88.76,95.8Z"></path>
    </g>
  </g>
  <g id="SvgjsG1018" data-name="curly small">
    <g>
      <path class="cls-5" d="M76.09,255.51c-4.98,61.15,84.25,102.37,84.25,102.37v-25.82s-66.96-21.86-62.59-70.21c5.08-56.17,62.59-50.29,62.59-50.29v-14.41s-79.27-2.79-84.25,58.36Z"></path>
      <path class="cls-5" d="M930.91,255.51c-4.98-61.15-84.25-58.36-84.25-58.36v14.41s57.51-5.88,62.59,50.29c4.37,48.35-62.59,70.21-62.59,70.21v25.82s89.23-41.23,84.25-102.37Z"></path>
      <path class="cls-5" d="M846.66,649.11v25.82s66.96,21.86,62.59,70.21c-5.08,56.17-62.59,50.29-62.59,50.29v14.41s79.27,2.79,84.25-58.36-84.25-102.37-84.25-102.37Z"></path>
      <path class="cls-5" d="M76.09,751.49c4.98,61.15,84.25,58.36,84.25,58.36v-14.41s-57.51,5.88-62.59-50.29c-4.37-48.35,62.59-70.21,62.59-70.21v-25.82s-89.23,41.23-84.25,102.37Z"></path>
    </g>
  </g>
  <g id="SvgjsG1017" data-name="curly mid">
    <g>
      <path class="cls-5" d="M172.94,80.22c-32.89-6.6-64.08,4.68-64.08,4.68l-47.4-22.05,20.32,50.78s-14.04,12.25-8.81,64.83,87.39,86.94,87.39,86.94v-24.5s-100.38-56.46-51.99-123.83c21.31-29.66,56.88-27.18,85.15-8.64,35.93,23.57,62.74,69.52,62.74,69.52l27.48-.8s-16.47-29.04-39.73-52.58c-22.77-23.04-52.14-40.55-71.05-44.34Z"></path>
      <path class="cls-5" d="M813.5,108.43c28.27-18.54,63.83-21.03,85.15,8.64,48.4,67.37-51.99,123.83-51.99,123.83v24.5s82.16-34.36,87.39-86.94c5.23-52.58-8.81-64.83-8.81-64.83l20.32-50.78-47.4,22.05s-31.2-11.28-64.08-4.68c-18.92,3.79-48.28,21.3-71.05,44.34-23.27,23.54-39.73,52.58-39.73,52.58l27.48.8s26.81-45.95,62.74-69.52Z"></path>
      <path class="cls-5" d="M934.04,828.54c-5.23-52.58-87.39-86.94-87.39-86.94v24.5s100.38,56.46,51.99,123.83c-21.31,29.66-56.88,27.18-85.15,8.64-35.93-23.57-62.74-69.52-62.74-69.52l-27.48.8s16.47,29.04,39.73,52.58c22.77,23.04,52.14,40.55,71.05,44.34,32.89,6.6,64.08-4.68,64.08-4.68l47.4,22.05-20.32-50.78s14.04-12.25,8.81-64.83Z"></path>
      <path class="cls-5" d="M193.5,898.57c-28.27,18.54-63.83,21.03-85.15-8.64-48.4-67.37,51.99-123.83,51.99-123.83v-24.5s-82.16,34.36-87.39,86.94,8.81,64.83,8.81,64.83l-20.32,50.78,47.4-22.05s31.2,11.28,64.08,4.68c18.92-3.79,48.28-21.3,71.05-44.34,23.27-23.54,39.73-52.58,39.73-52.58l-27.48-.8s-26.81,45.95-62.74,69.52Z"></path>
    </g>
  </g>
  <path id="SvgjsPath1016" data-name="star border" class="cls-2" d="M846.66,380.17v-201.96l-228.57-.63-114.59-124h0s-114.59,124-114.59,124l-228.57.63v201.96l-106.77,123.33,106.77,123.33v201.96l228.57.63,114.59,124,114.59-124,228.57-.63v-201.96l106.77-123.33-106.77-123.33ZM808.42,615.48v173.88h-215.7l-89.21,105.01-89.21-105.01h-215.7v-173.88l-99.3-111.98,99.3-111.98v-173.88h215.7l89.21-105.01,89.21,105.01h215.7v173.88l99.3,111.98-99.3,111.98Z"></path>
  <g id="SvgjsG1015" data-name="mid fill">
    <g>
      <polygon class="cls-9" points="783.49 503.5 782.79 499.31 750.08 467.94 730.36 412.82 673.45 402.06 612.05 399.56 601.3 333.5 593.23 289.58 556.83 278.73 516.15 263.14 503.5 245.22 490.85 263.14 450.17 278.73 413.77 289.58 405.7 333.5 394.95 399.56 333.55 402.06 276.64 412.82 256.92 467.94 224.21 499.31 223.51 503.5 503.5 503.5 503.5 503.5 783.49 503.5"></polygon>
      <polygon class="cls-9" points="223.51 503.5 224.21 507.69 256.92 539.06 276.64 594.18 333.55 604.94 394.95 607.44 405.7 673.5 413.77 717.42 450.17 728.27 490.85 743.86 503.5 761.78 516.15 743.86 556.83 728.27 593.23 717.42 601.3 673.5 612.05 607.44 673.45 604.94 730.36 594.18 750.08 539.06 782.79 507.69 783.49 503.5 503.5 503.5 223.51 503.5"></polygon>
    </g>
  </g>
  <g id="SvgjsG1014">
    <path class="cls-4" d="M197.42,503.82c8.15,1.66,24.52,7.33,38.64,26.58,19.72,26.89,7.57,60.3,50.39,78.07,40.44,9.32,65.93,6.12,65.93,6.12l3.47-16.93s-46.98,2.89-74.07-14.84c-14.99-9.81-17.23-41.33-28.38-60.05-6.84-11.48-20.01-19.16-20.01-19.16v-.24s13.17-7.67,20.01-19.16c11.15-18.72,13.39-50.24,28.38-60.05,27.09-17.73,74.07-14.84,74.07-14.84l-3.47-16.93s-25.49-3.2-65.93,6.12c-42.82,17.78-30.67,51.19-50.39,78.07-14.12,19.26-30.48,24.92-38.64,26.58v.63Z"></path>
    <path class="cls-4" d="M773.62,503.62s-13.17,7.67-20.01,19.16c-11.15,18.72-13.39,50.24-28.38,60.05-27.09,17.73-74.07,14.84-74.07,14.84l3.47,16.93s25.49,3.2,65.93-6.12c42.82-17.78,30.67-51.19,50.39-78.07,14.12-19.26,30.48-25.08,38.64-26.74v-.16c-8.15-1.66-24.52-7.64-38.64-26.89-19.72-26.89-7.57-60.3-50.39-78.07-40.44-9.32-65.93-6.12-65.93-6.12l-3.47,16.93s46.98-2.89,74.07,14.84c14.99,9.81,17.23,41.33,28.38,60.05,6.84,11.48,20.01,19.16,20.01,19.16v.24Z"></path>
    <path class="cls-4" d="M597.66,281.87c-27.78-18.22-43.32-13.15-65.13-18.82-21.81-5.68-29.04-39.73-29.04-39.73h0s-7.23,34.06-29.04,39.73c-21.81,5.68-37.34.6-65.13,18.82-27.78,18.22-15.54,108.45-15.54,108.45l23-5.98s-17.33-68.41,2.69-85.44,61.15-12.97,72.5-25.05,11.51-19.57,11.51-19.57h0s.16,7.49,11.51,19.57c11.35,12.08,52.48,8.02,72.5,25.05s2.69,85.44,2.69,85.44l23,5.98s12.25-90.22-15.54-108.45Z"></path>
    <path class="cls-4" d="M590.2,622.66s17.33,68.41-2.69,85.44c-20.02,17.03-61.15,12.97-72.5,25.05-11.35,12.08-11.51,19.57-11.51,19.57,0,0-.16-7.49-11.51-19.57s-52.48-8.02-72.5-25.05c-20.02-17.03-2.69-85.44-2.69-85.44l-23-5.98s-12.25,90.22,15.54,108.45c27.78,18.22,43.32,13.15,65.13,18.82,21.81,5.68,29.04,39.73,29.04,39.73,0,0,7.23-34.06,29.04-39.73s37.34-.6,65.13-18.82c27.78-18.22,15.54-108.45,15.54-108.45l-23,5.98Z"></path>
  </g>
  <g id="SvgjsG1013" data-name="long petals">
    <path class="cls-4" d="M425.02,374.43c-26.96-26.52-110.26-53.61-110.26-53.61,0,0,15.65,69.44,47.8,99.89,18.8,17.81,93.74,66.73,93.74,66.73l24-31.49s-28.32-54.99-55.28-81.52Z"></path>
    <path class="cls-4" d="M644.43,420.71c32.15-30.44,47.8-99.89,47.8-99.89,0,0-83.3,27.09-110.26,53.61-26.96,26.52-55.28,81.52-55.28,81.52l24,31.49s74.93-48.92,93.74-66.73Z"></path>
    <path class="cls-4" d="M644.43,586.29c-18.8-17.81-93.74-66.73-93.74-66.73l-24,31.49s28.32,54.99,55.28,81.52c26.96,26.52,110.26,53.61,110.26,53.61,0,0-15.65-69.44-47.8-99.89Z"></path>
    <path class="cls-4" d="M362.57,586.29c-32.15,30.44-47.8,99.89-47.8,99.89,0,0,83.3-27.09,110.26-53.61s55.28-81.52,55.28-81.52l-24-31.49s-74.93,48.92-93.74,66.73Z"></path>
  </g>
  <g id="SvgjsG1012">
    <g>
      <path class="cls-3" d="M475.63,418.28c9.66,7.57,18.87,32.65,18.87,32.65l3.34,2.31,2.27-.59,3.88-.3,5.17.89,3.34-2.31s9.21-25.08,18.87-32.65c9.66-7.57,29.04-26.1,31.97-37.74,1.17-4.66,1.94-13-4.98-16.53-12.7-4.95-18.92,5.68-18.92,5.68,0,0-1.41-14.4-4.98-18.57-6.65-7.76-16.03-5.88-21.55-.95-3.79,3.38-9.4,16.43-9.4,16.43,0,0-5.62-13.06-9.4-16.43-5.53-4.93-14.9-6.81-21.55.95-3.57,4.17-4.98,18.57-4.98,18.57,0,0-6.22-10.63-18.92-5.68-6.92,3.54-6.15,11.88-4.98,16.53,2.93,11.64,22.31,30.17,31.97,37.74Z"></path>
      <path class="cls-3" d="M531.37,588.72c-9.66-7.57-18.87-32.65-18.87-32.65l-3.34-2.31-5.82-.23-5.51.23-3.34,2.31s-9.21,25.08-18.87,32.65c-9.66,7.57-29.04,26.1-31.97,37.74-1.17,4.66-1.94,13,4.98,16.53,12.7,4.95,18.92-5.68,18.92-5.68,0,0,1.41,14.4,4.98,18.57,6.65,7.76,16.03,5.88,21.55.95,3.79-3.38,9.4-16.43,9.4-16.43,0,0,5.62,13.06,9.4,16.43,5.53,4.93,14.9,6.81,21.55-.95,3.57-4.17,4.98-18.57,4.98-18.57,0,0,6.22,10.63,18.92,5.68,6.92-3.54,6.15-11.88,4.98-16.53-2.93-11.64-22.31-30.17-31.97-37.74Z"></path>
      <path class="cls-3" d="M639.23,503.5c2.96-1.32,12.72-5.83,15.57-9.03,4.93-5.53,6.81-14.9-.95-21.55-4.17-3.57-18.57-4.98-18.57-4.98,0,0,10.63-6.22,5.68-18.92-3.54-6.92-11.88-6.15-16.53-4.98-11.64,2.93-30.17,22.31-37.74,31.97-7.57,9.66-32.65,18.87-32.65,18.87l-2.31,3.34,3.25,5.29-3.25,5.29,2.31,3.34s25.08,9.21,32.65,18.87c7.57,9.66,26.1,29.04,37.74,31.97,4.66,1.17,13,1.94,16.53-4.98,4.95-12.7-5.68-18.92-5.68-18.92,0,0,14.4-1.41,18.57-4.98,7.76-6.65,5.88-16.03.95-21.55-2.85-3.2-12.62-7.71-15.57-9.03Z"></path>
      <path class="cls-3" d="M455.26,508.79l-3.25-5.29,3.25-5.29-2.31-3.34s-25.08-9.21-32.65-18.87c-7.57-9.66-26.1-29.04-37.74-31.97-4.66-1.17-13-1.94-16.53,4.98-4.95,12.7,5.68,18.92,5.68,18.92,0,0-14.4,1.41-18.57,4.98-7.76,6.65-5.88,16.03-.95,21.55,2.85,3.2,12.62,7.71,15.57,9.03-2.96,1.32-12.72,5.83-15.57,9.03-4.93,5.53-6.81,14.9.95,21.55,4.17,3.57,18.57,4.98,18.57,4.98,0,0-10.63,6.22-5.68,18.92,3.54,6.92,11.88,6.15,16.53,4.98,11.64-2.93,30.17-22.31,37.74-31.97,7.57-9.66,32.65-18.87,32.65-18.87l2.31-3.34Z"></path>
    </g>
  </g>
  <circle class="cls-6" cx="503.5" cy="503.5" r="53.33"></circle>
  <path id="SvgjsPath1011" class="cls-7" d="M3.5,3.5v1000h1000V3.5H3.5ZM953.43,953.43H53.57V53.57h899.85v899.85Z"></path>
</svg><style>@media (prefers-color-scheme: light) { :root { filter: none; } }
@media (prefers-color-scheme: dark) { :root { filter: none; } }
</style></svg>