<svg xmlns="http://www.w3.org/2000/svg" version="1.1" xmlns:xlink="http://www.w3.org/1999/xlink" width="515.58" height="515.58"><svg id="SvgjsSvg1021" data-name="Layer 1" xmlns="http://www.w3.org/2000/svg" viewBox="0 0 515.58 515.58">
  <defs>
    <style>
      .cls-1, .cls-2 {
        fill: #004c1d;
      }

      .cls-3 {
        fill: none;
        stroke: #b5dfb1;
      }

      .cls-3, .cls-4, .cls-5, .cls-2 {
        stroke-width: 3.58px;
      }

      .cls-3, .cls-4, .cls-5, .cls-2, .cls-6, .cls-7 {
        stroke-miterlimit: 10;
      }

      .cls-4 {
        fill: #0500d5;
        stroke: #11005a;
      }

      .cls-5 {
        fill: #ffc9c7;
        stroke: #ff93b6;
      }

      .cls-2 {
        stroke: #b3ddb0;
      }

      .cls-8 {
        fill: #fff8ca;
      }

      .cls-6 {
        fill: #b3ddb0;
        stroke: #004c1d;
      }

      .cls-6, .cls-7 {
        stroke-width: 2.56px;
      }

      .cls-7 {
        fill: #fff548;
        stroke: #df8e00;
      }

      .cls-9 {
        fill: #c7fbff;
      }
    </style>
  </defs>
  <rect class="cls-8" x="1.79" y="1.79" width="512" height="512"></rect>
  <polygon id="SvgjsPolygon1020" data-name="green bg" class="cls-1" points="257.79 1.79 1.79 1.79 1.79 257.79 1.79 513.79 257.79 513.79 513.79 513.79 513.79 257.79 466.53 257.79 413.91 315.13 413.91 404.15 303.47 404.15 257.79 457.92 212.11 404.15 101.68 404.15 101.68 315.13 49.06 257.79 101.68 200.46 101.68 111.43 212.11 111.43 257.79 57.67 303.47 111.43 413.91 111.43 413.91 200.46 466.53 257.79 513.79 257.79 513.79 1.79 257.79 1.79"></polygon>
  <g id="SvgjsG1019" data-name="curly top">
    <g>
      <path class="cls-6" d="M130.7,32.2c-55.07,1.27-43.59,59.03-43.59,59.03l9.75.61s-7.34-52.62,35.59-49.66c42.93,2.96,45.44,49.05,45.44,49.05l15.22-.29s-7.34-60.01-62.41-58.74Z"></path>
      <path class="cls-6" d="M383.14,42.18c42.93-2.96,35.59,49.66,35.59,49.66l9.75-.61s11.47-57.76-43.59-59.03c-55.07-1.27-62.41,58.74-62.41,58.74l15.22.29s2.51-46.09,45.44-49.05Z"></path>
      <path class="cls-6" d="M418.73,423.74s7.34,52.62-35.59,49.66c-42.93-2.96-45.44-49.05-45.44-49.05l-15.22.29s7.34,60.01,62.41,58.74c55.07-1.27,43.59-59.03,43.59-59.03l-9.75-.61Z"></path>
      <path class="cls-6" d="M132.45,473.4c-42.93,2.96-35.59-49.66-35.59-49.66l-9.75.61s-11.47,57.76,43.59,59.03c55.07,1.27,62.41-58.74,62.41-58.74l-15.22-.29s-2.51,46.09-45.44,49.05Z"></path>
    </g>
  </g>
  <g id="SvgjsG1018" data-name="curly small">
    <g>
      <path class="cls-6" d="M38.96,130.82c-2.55,31.31,43.14,52.42,43.14,52.42v-13.22s-34.29-11.19-32.05-35.95c2.6-28.76,32.05-25.75,32.05-25.75v-7.38s-40.59-1.43-43.14,29.88Z"></path>
      <path class="cls-6" d="M476.62,130.82c-2.55-31.31-43.14-29.88-43.14-29.88v7.38s29.45-3.01,32.05,25.75c2.24,24.75-32.05,35.95-32.05,35.95v13.22s45.69-21.11,43.14-52.42Z"></path>
      <path class="cls-6" d="M433.49,332.35v13.22s34.29,11.19,32.05,35.95c-2.6,28.76-32.05,25.75-32.05,25.75v7.38s40.59,1.43,43.14-29.88c2.55-31.31-43.14-52.42-43.14-52.42Z"></path>
      <path class="cls-6" d="M38.96,384.76c2.55,31.31,43.14,29.88,43.14,29.88v-7.38s-29.45,3.01-32.05-25.75c-2.24-24.75,32.05-35.95,32.05-35.95v-13.22s-45.69,21.11-43.14,52.42Z"></path>
    </g>
  </g>
  <g id="SvgjsG1017" data-name="curly mid">
    <g>
      <path class="cls-6" d="M88.55,41.07c-16.84-3.38-32.81,2.4-32.81,2.4l-24.27-11.29,10.4,26s-7.19,6.27-4.51,33.19c2.68,26.92,44.74,44.51,44.74,44.51v-12.54s-51.4-28.91-26.62-63.4c10.91-15.19,29.12-13.92,43.59-4.42,18.4,12.07,32.12,35.59,32.12,35.59l14.07-.41s-8.43-14.87-20.34-26.92c-11.66-11.8-26.69-20.76-36.38-22.7Z"></path>
      <path class="cls-6" d="M416.51,55.51c14.47-9.49,32.68-10.76,43.59,4.42,24.78,34.49-26.62,63.4-26.62,63.4v12.54s42.07-17.59,44.74-44.51c2.68-26.92-4.51-33.19-4.51-33.19l10.4-26-24.27,11.29s-15.97-5.77-32.81-2.4c-9.68,1.94-24.72,10.91-36.38,22.7-11.91,12.05-20.34,26.92-20.34,26.92l14.07.41s13.73-23.53,32.12-35.59Z"></path>
      <path class="cls-6" d="M478.23,424.21c-2.68-26.92-44.74-44.51-44.74-44.51v12.54s51.4,28.91,26.62,63.4c-10.91,15.19-29.12,13.92-43.59,4.42-18.4-12.07-32.12-35.59-32.12-35.59l-14.07.41s8.43,14.87,20.34,26.92c11.66,11.8,26.69,20.76,36.38,22.7,16.84,3.38,32.81-2.4,32.81-2.4l24.27,11.29-10.4-26s7.19-6.27,4.51-33.19Z"></path>
      <path class="cls-6" d="M99.07,460.07c-14.47,9.49-32.68,10.76-43.59-4.42-24.78-34.49,26.62-63.4,26.62-63.4v-12.54s-42.07,17.59-44.74,44.51c-2.68,26.92,4.51,33.19,4.51,33.19l-10.4,26,24.27-11.29s15.97,5.77,32.81,2.4c9.68-1.94,24.72-10.91,36.38-22.7,11.91-12.05,20.34-26.92,20.34-26.92l-14.07-.41s-13.73,23.53-32.12,35.59Z"></path>
    </g>
  </g>
  <path id="SvgjsPath1016" data-name="star border" class="cls-2" d="M433.49,194.64v-103.4l-117.03-.33-58.67-63.49h0s-58.67,63.49-58.67,63.49l-117.03.33v103.4l-54.67,63.15,54.67,63.15v103.4l117.03.33,58.67,63.49,58.67-63.49,117.03-.33v-103.4l54.67-63.15-54.67-63.15ZM413.91,315.13v89.02h-110.44l-45.68,53.77-45.68-53.77h-110.44v-89.02l-50.84-57.33,50.84-57.33v-89.02h110.44l45.68-53.77,45.68,53.77h110.44v89.02l50.84,57.33-50.84,57.33Z"></path>
  <g id="SvgjsG1015" data-name="mid fill">
    <g>
      <polygon class="cls-9" points="401.15 257.79 400.79 255.65 384.04 239.59 373.94 211.36 344.81 205.86 313.37 204.57 307.86 170.75 303.73 148.27 285.1 142.71 264.27 134.73 257.79 125.55 251.31 134.73 230.49 142.71 211.85 148.27 207.72 170.75 202.21 204.57 170.78 205.86 141.64 211.36 131.54 239.59 114.79 255.65 114.44 257.79 257.79 257.79 257.79 257.79 401.15 257.79"></polygon>
      <polygon class="cls-9" points="114.44 257.79 114.79 259.94 131.54 276 141.64 304.22 170.78 309.73 202.21 311.01 207.72 344.83 211.85 367.32 230.49 372.88 251.31 380.85 257.79 390.03 264.27 380.85 285.1 372.88 303.73 367.32 307.86 344.83 313.37 311.01 344.81 309.73 373.94 304.22 384.04 276 400.79 259.94 401.15 257.79 257.79 257.79 114.44 257.79"></polygon>
    </g>
  </g>
  <g id="SvgjsG1014">
    <path class="cls-4" d="M101.08,257.95c4.18.85,12.55,3.75,19.78,13.61,10.1,13.77,3.88,30.87,25.8,39.97,20.7,4.77,33.75,3.14,33.75,3.14l1.77-8.67s-24.06,1.48-37.92-7.6c-7.67-5.02-8.82-21.16-14.53-30.75-3.5-5.88-10.25-9.81-10.25-9.81v-.12s6.74-3.93,10.25-9.81c5.71-9.59,6.86-25.72,14.53-30.75,13.87-9.08,37.92-7.6,37.92-7.6l-1.77-8.67s-13.05-1.64-33.75,3.14c-21.92,9.1-15.7,26.21-25.8,39.97-7.23,9.86-15.61,12.76-19.78,13.61v.32Z"></path>
    <path class="cls-4" d="M396.1,257.85s-6.74,3.93-10.25,9.81c-5.71,9.59-6.86,25.72-14.53,30.75-13.87,9.08-37.92,7.6-37.92,7.6l1.77,8.67s13.05,1.64,33.75-3.14c21.92-9.1,15.7-26.21,25.8-39.97,7.23-9.86,15.61-12.84,19.78-13.69v-.08c-4.17-.85-12.55-3.91-19.78-13.77-10.1-13.77-3.88-30.87-25.8-39.97-20.7-4.77-33.75-3.14-33.75-3.14l-1.77,8.67s24.06-1.48,37.92,7.6c7.67,5.02,8.82,21.16,14.53,30.75,3.5,5.88,10.25,9.81,10.25,9.81v.12Z"></path>
    <path class="cls-4" d="M306,144.31c-14.23-9.33-22.18-6.73-33.35-9.64-11.17-2.91-14.87-20.34-14.87-20.34h0s-3.7,17.44-14.87,20.34c-11.17,2.91-19.12.31-33.35,9.64s-7.95,55.53-7.95,55.53l11.78-3.06s-8.87-35.03,1.38-43.75,31.31-6.64,37.12-12.82,5.89-10.02,5.89-10.02h0s.08,3.84,5.89,10.02c5.81,6.18,26.87,4.1,37.12,12.82s1.38,43.75,1.38,43.75l11.78,3.06s6.27-46.19-7.95-55.53Z"></path>
    <path class="cls-4" d="M302.18,318.8s8.87,35.03-1.38,43.75c-10.25,8.72-31.31,6.64-37.12,12.82-5.81,6.18-5.89,10.02-5.89,10.02,0,0-.08-3.84-5.89-10.02s-26.87-4.1-37.12-12.82c-10.25-8.72-1.38-43.75-1.38-43.75l-11.78-3.06s-6.27,46.19,7.95,55.53c14.23,9.33,22.18,6.73,33.35,9.64,11.17,2.91,14.87,20.34,14.87,20.34,0,0,3.7-17.44,14.87-20.34,11.17-2.91,19.12-.31,33.35-9.64,14.23-9.33,7.95-55.53,7.95-55.53l-11.78,3.06Z"></path>
  </g>
  <g id="SvgjsG1013" data-name="long petals">
    <path class="cls-4" d="M217.61,191.71c-13.8-13.58-56.45-27.45-56.45-27.45,0,0,8.01,35.56,24.48,51.14,9.63,9.12,47.99,34.16,47.99,34.16l12.29-16.12s-14.5-28.16-28.3-41.74Z"></path>
    <path class="cls-4" d="M329.95,215.4c16.46-15.59,24.48-51.14,24.48-51.14,0,0-42.65,13.87-56.45,27.45-13.8,13.58-28.3,41.74-28.3,41.74l12.29,16.12s38.36-25.05,47.99-34.16Z"></path>
    <path class="cls-4" d="M329.95,300.18c-9.63-9.12-47.99-34.16-47.99-34.16l-12.29,16.12s14.5,28.16,28.3,41.74c13.8,13.58,56.45,27.45,56.45,27.45,0,0-8.01-35.56-24.48-51.14Z"></path>
    <path class="cls-4" d="M185.63,300.18c-16.46,15.59-24.48,51.14-24.48,51.14,0,0,42.65-13.87,56.45-27.45,13.8-13.58,28.3-41.74,28.3-41.74l-12.29-16.12s-38.37,25.05-47.99,34.16Z"></path>
  </g>
  <g id="SvgjsG1012">
    <g>
      <path class="cls-5" d="M243.52,214.16c4.95,3.88,9.66,16.72,9.66,16.72l1.71,1.18,1.16-.3,1.99-.15,2.65.45,1.71-1.18s4.72-12.84,9.66-16.72c4.95-3.88,14.87-13.37,16.37-19.32.6-2.38.99-6.65-2.55-8.46-6.5-2.54-9.69,2.91-9.69,2.91,0,0-.72-7.37-2.55-9.51-3.41-3.97-8.21-3.01-11.04-.49-1.94,1.73-4.82,8.41-4.82,8.41,0,0-2.88-6.68-4.82-8.41-2.83-2.52-7.63-3.49-11.04.49-1.83,2.13-2.55,9.51-2.55,9.51,0,0-3.19-5.44-9.69-2.91-3.54,1.81-3.15,6.08-2.55,8.46,1.5,5.96,11.42,15.45,16.37,19.32Z"></path>
      <path class="cls-5" d="M272.06,301.42c-4.95-3.88-9.66-16.72-9.66-16.72l-1.71-1.18-2.98-.12-2.82.12-1.71,1.18s-4.72,12.84-9.66,16.72c-4.95,3.88-14.87,13.37-16.37,19.32-.6,2.38-.99,6.65,2.55,8.46,6.5,2.54,9.69-2.91,9.69-2.91,0,0,.72,7.37,2.55,9.51,3.41,3.97,8.21,3.01,11.04.49,1.94-1.73,4.82-8.41,4.82-8.41,0,0,2.88,6.68,4.82,8.41,2.83,2.52,7.63,3.49,11.04-.49,1.83-2.13,2.55-9.51,2.55-9.51,0,0,3.19,5.44,9.69,2.91,3.54-1.81,3.15-6.08,2.55-8.46-1.5-5.96-11.42-15.45-16.37-19.32Z"></path>
      <path class="cls-5" d="M327.29,257.79c1.51-.68,6.51-2.98,7.97-4.62,2.52-2.83,3.49-7.63-.49-11.04-2.13-1.83-9.51-2.55-9.51-2.55,0,0,5.44-3.19,2.91-9.69-1.81-3.54-6.08-3.15-8.46-2.55-5.96,1.5-15.45,11.42-19.32,16.37-3.88,4.95-16.72,9.66-16.72,9.66l-1.18,1.71,1.67,2.71-1.67,2.71,1.18,1.71s12.84,4.72,16.72,9.66c3.88,4.95,13.37,14.87,19.32,16.37,2.38.6,6.65.99,8.46-2.55,2.54-6.5-2.91-9.69-2.91-9.69,0,0,7.37-.72,9.51-2.55,3.97-3.41,3.01-8.21.49-11.04-1.46-1.64-6.46-3.95-7.97-4.62Z"></path>
      <path class="cls-5" d="M233.09,260.5l-1.67-2.71,1.67-2.71-1.18-1.71s-12.84-4.72-16.72-9.66c-3.88-4.95-13.37-14.87-19.32-16.37-2.38-.6-6.65-.99-8.46,2.55-2.54,6.5,2.91,9.69,2.91,9.69,0,0-7.37.72-9.51,2.55-3.97,3.41-3.01,8.21-.49,11.04,1.46,1.64,6.46,3.95,7.97,4.62-1.51.68-6.51,2.98-7.97,4.62-2.52,2.83-3.49,7.63.49,11.04,2.13,1.83,9.51,2.55,9.51,2.55,0,0-5.44,3.19-2.91,9.69,1.81,3.54,6.08,3.15,8.46,2.55,5.96-1.5,15.45-11.42,19.32-16.37,3.88-4.95,16.72-9.66,16.72-9.66l1.18-1.71Z"></path>
    </g>
  </g>
  <circle class="cls-7" cx="257.79" cy="257.79" r="27.3"></circle>
  <path id="SvgjsPath1011" class="cls-3" d="M1.79,1.79v512h512V1.79H1.79ZM488.15,488.15H27.43V27.43h460.72v460.72Z"></path>
</svg><style>@media (prefers-color-scheme: light) { :root { filter: none; } }
@media (prefers-color-scheme: dark) { :root { filter: none; } }
</style></svg>