<svg width="85" height="81" viewBox="0 0 85 81" fill="none" xmlns="http://www.w3.org/2000/svg">
<path d="M51.0002 40C51.0002 44.9706 46.9707 49 42.0002 49C37.0296 49 33.0002 44.9706 33.0002 40C33.0002 35.0294 37.0296 31 42.0002 31C46.9707 31 51.0002 35.0294 51.0002 40Z" fill="#391809"/>
<path d="M41.6719 51C45.0052 52.8333 50.7234 57.3 49.5234 62.5C48.3347 67.6511 44.0198 75.9721 41.6719 80.5C39.3385 76 35.3719 67.7 34.1719 62.5C32.9719 57.3 38.3385 52.8333 41.6719 51Z" fill="#391809"/>
<path d="M18 32.1719C23.2 30.9719 27.6667 36.3385 29.5 39.6719C27.6666 43.0052 23.1999 48.7234 18 47.5234C12.8489 46.3347 4.52784 42.0198 0 39.6719C4.49994 37.3386 12.8 33.3719 18 32.1719Z" fill="#391809"/>
<path d="M55 39.6719C56.8333 36.3386 61.3001 30.972 66.5 32.1719C71.7 33.3719 80 37.3385 84.5 39.6719C79.9721 42.0198 71.651 46.3347 66.5 47.5234C61.3002 48.7232 56.8333 43.0052 55 39.6719Z" fill="#391809"/>
<path d="M42.0146 0C44.348 4.50002 48.3147 12.8 49.5146 18C50.7146 23.1999 45.348 27.6666 42.0146 29.5C38.6813 27.6667 32.9631 23.2 34.1631 18C35.3518 12.8489 39.6667 4.52786 42.0146 0Z" fill="#391809"/>
</svg>
