<svg width="516" height="625" viewBox="0 0 516 625" fill="none" xmlns="http://www.w3.org/2000/svg">
<path d="M82.416 563.072C82.416 568.277 81.2214 573.056 78.832 577.408C76.4427 581.675 72.7734 585.131 67.824 587.776C62.8747 590.421 56.7307 591.744 49.392 591.744H35.824V624H13.936V534.144H49.392C56.56 534.144 62.6187 535.381 67.568 537.856C72.5174 540.331 76.2294 543.744 78.704 548.096C81.1787 552.448 82.416 557.44 82.416 563.072ZM47.728 574.336C51.9094 574.336 55.024 573.355 57.072 571.392C59.12 569.429 60.144 566.656 60.144 563.072C60.144 559.488 59.12 556.715 57.072 554.752C55.024 552.789 51.9094 551.808 47.728 551.808H35.824V574.336H47.728Z" fill="#FBF5E9"/>
<path d="M109.299 551.68V569.856H138.611V586.752H109.299V606.464H142.451V624H87.411V534.144H142.451V551.68H109.299Z" fill="#FBF5E9"/>
<path d="M230.645 624H208.757L172.149 568.576V624H150.261V534.144H172.149L208.757 589.824V534.144H230.645V624Z" fill="#FBF5E9"/>
<path d="M296.047 608.128H262.511L257.135 624H234.223L266.735 534.144H292.079L324.591 624H301.423L296.047 608.128ZM290.415 591.232L279.279 558.336L268.271 591.232H290.415Z" fill="#FBF5E9"/>
<path d="M408.47 624H386.582L349.974 568.576V624H328.086V534.144H349.974L386.582 589.824V534.144H408.47V624Z" fill="#FBF5E9"/>
<path d="M477.584 562.56C475.963 559.573 473.616 557.312 470.544 555.776C467.557 554.155 464.016 553.344 459.92 553.344C452.837 553.344 447.163 555.691 442.896 560.384C438.629 564.992 436.496 571.179 436.496 578.944C436.496 587.221 438.715 593.707 443.152 598.4C447.675 603.008 453.861 605.312 461.712 605.312C467.088 605.312 471.611 603.947 475.28 601.216C479.035 598.485 481.765 594.56 483.472 589.44H455.696V573.312H503.312V593.664C501.691 599.125 498.917 604.203 494.992 608.896C491.152 613.589 486.245 617.387 480.272 620.288C474.299 623.189 467.557 624.64 460.048 624.64C451.173 624.64 443.237 622.72 436.24 618.88C429.328 614.955 423.909 609.536 419.984 602.624C416.144 595.712 414.224 587.819 414.224 578.944C414.224 570.069 416.144 562.176 419.984 555.264C423.909 548.267 429.328 542.848 436.24 539.008C443.152 535.083 451.045 533.12 459.92 533.12C470.672 533.12 479.717 535.723 487.056 540.928C494.48 546.133 499.387 553.344 501.776 562.56H477.584Z" fill="#FBF5E9"/>
<g clip-path="url(#clip0_27_392)">
<path d="M513.79 1.79004H1.79004V513.79H513.79V1.79004Z" fill="#FFF8CA"/>
<path d="M257.79 1.79004H1.79004V257.79V513.79H257.79H513.79V257.79H466.53L413.91 315.13V404.15H303.47L257.79 457.92L212.11 404.15H101.68V315.13L49.06 257.79L101.68 200.46V111.43H212.11L257.79 57.67L303.47 111.43H413.91V200.46L466.53 257.79H513.79V1.79004H257.79Z" fill="#004C1D"/>
<path d="M130.7 32.2001C75.63 33.4701 87.11 91.2301 87.11 91.2301L96.86 91.84C96.86 91.84 89.52 39.2201 132.45 42.1801C175.38 45.1401 177.89 91.2301 177.89 91.2301L193.11 90.9401C193.11 90.9401 185.77 30.9301 130.7 32.2001Z" fill="#B3DDB0" stroke="#004C1D" stroke-width="2.56" stroke-miterlimit="10"/>
<path d="M383.14 42.1801C426.07 39.2201 418.73 91.84 418.73 91.84L428.48 91.2301C428.48 91.2301 439.95 33.4701 384.89 32.2001C329.82 30.9301 322.48 90.9401 322.48 90.9401L337.7 91.2301C337.7 91.2301 340.21 45.1401 383.14 42.1801Z" fill="#B3DDB0" stroke="#004C1D" stroke-width="2.56" stroke-miterlimit="10"/>
<path d="M418.73 423.74C418.73 423.74 426.07 476.36 383.14 473.4C340.21 470.44 337.7 424.35 337.7 424.35L322.48 424.64C322.48 424.64 329.82 484.65 384.89 483.38C439.96 482.11 428.48 424.35 428.48 424.35L418.73 423.74Z" fill="#B3DDB0" stroke="#004C1D" stroke-width="2.56" stroke-miterlimit="10"/>
<path d="M132.45 473.4C89.52 476.36 96.86 423.74 96.86 423.74L87.11 424.35C87.11 424.35 75.64 482.11 130.7 483.38C185.77 484.65 193.11 424.64 193.11 424.64L177.89 424.35C177.89 424.35 175.38 470.44 132.45 473.4Z" fill="#B3DDB0" stroke="#004C1D" stroke-width="2.56" stroke-miterlimit="10"/>
<path d="M38.96 130.82C36.41 162.13 82.1 183.24 82.1 183.24V170.02C82.1 170.02 47.81 158.83 50.05 134.07C52.65 105.31 82.1 108.32 82.1 108.32V100.94C82.1 100.94 41.51 99.51 38.96 130.82Z" fill="#B3DDB0" stroke="#004C1D" stroke-width="2.56" stroke-miterlimit="10"/>
<path d="M476.62 130.82C474.07 99.51 433.48 100.94 433.48 100.94V108.32C433.48 108.32 462.93 105.31 465.53 134.07C467.77 158.82 433.48 170.02 433.48 170.02V183.24C433.48 183.24 479.17 162.13 476.62 130.82Z" fill="#B3DDB0" stroke="#004C1D" stroke-width="2.56" stroke-miterlimit="10"/>
<path d="M433.49 332.35V345.57C433.49 345.57 467.78 356.76 465.54 381.52C462.94 410.28 433.49 407.27 433.49 407.27V414.65C433.49 414.65 474.08 416.08 476.63 384.77C479.18 353.46 433.49 332.35 433.49 332.35Z" fill="#B3DDB0" stroke="#004C1D" stroke-width="2.56" stroke-miterlimit="10"/>
<path d="M38.96 384.76C41.51 416.07 82.1 414.64 82.1 414.64V407.26C82.1 407.26 52.65 410.27 50.05 381.51C47.81 356.76 82.1 345.56 82.1 345.56V332.34C82.1 332.34 36.41 353.45 38.96 384.76Z" fill="#B3DDB0" stroke="#004C1D" stroke-width="2.56" stroke-miterlimit="10"/>
<path d="M88.55 41.0701C71.71 37.6901 55.74 43.4701 55.74 43.4701L31.47 32.1801L41.87 58.1801C41.87 58.1801 34.68 64.4501 37.36 91.3701C40.04 118.29 82.1 135.88 82.1 135.88V123.34C82.1 123.34 30.7 94.4301 55.48 59.9401C66.39 44.7501 84.6 46.0201 99.07 55.5201C117.47 67.5901 131.19 91.1101 131.19 91.1101L145.26 90.7001C145.26 90.7001 136.83 75.8301 124.92 63.7801C113.26 51.9801 98.23 43.0201 88.54 41.0801L88.55 41.0701Z" fill="#B3DDB0" stroke="#004C1D" stroke-width="2.56" stroke-miterlimit="10"/>
<path d="M416.51 55.51C430.98 46.02 449.19 44.75 460.1 59.93C484.88 94.42 433.48 123.33 433.48 123.33V135.87C433.48 135.87 475.55 118.28 478.22 91.36C480.9 64.44 473.71 58.17 473.71 58.17L484.11 32.17L459.84 43.46C459.84 43.46 443.87 37.69 427.03 41.06C417.35 43 402.31 51.97 390.65 63.76C378.74 75.81 370.31 90.68 370.31 90.68L384.38 91.09C384.38 91.09 398.11 67.56 416.5 55.5L416.51 55.51Z" fill="#B3DDB0" stroke="#004C1D" stroke-width="2.56" stroke-miterlimit="10"/>
<path d="M478.23 424.21C475.55 397.29 433.49 379.7 433.49 379.7V392.24C433.49 392.24 484.89 421.15 460.11 455.64C449.2 470.83 430.99 469.56 416.52 460.06C398.12 447.99 384.4 424.47 384.4 424.47L370.33 424.88C370.33 424.88 378.76 439.75 390.67 451.8C402.33 463.6 417.36 472.56 427.05 474.5C443.89 477.88 459.86 472.1 459.86 472.1L484.13 483.39L473.73 457.39C473.73 457.39 480.92 451.12 478.24 424.2L478.23 424.21Z" fill="#B3DDB0" stroke="#004C1D" stroke-width="2.56" stroke-miterlimit="10"/>
<path d="M99.07 460.07C84.6 469.56 66.39 470.83 55.48 455.65C30.7 421.16 82.1 392.25 82.1 392.25V379.71C82.1 379.71 40.03 397.3 37.36 424.22C34.68 451.14 41.87 457.41 41.87 457.41L31.47 483.41L55.74 472.12C55.74 472.12 71.71 477.89 88.55 474.52C98.23 472.58 113.27 463.61 124.93 451.82C136.84 439.77 145.27 424.9 145.27 424.9L131.2 424.49C131.2 424.49 117.47 448.02 99.08 460.08L99.07 460.07Z" fill="#B3DDB0" stroke="#004C1D" stroke-width="2.56" stroke-miterlimit="10"/>
<path d="M433.49 194.64V91.24L316.46 90.91L257.79 27.42L199.12 90.91L82.09 91.24V194.64L27.42 257.79L82.09 320.94V424.34L199.12 424.67L257.79 488.16L316.46 424.67L433.49 424.34V320.94L488.16 257.79L433.49 194.64ZM413.91 315.13V404.15H303.47L257.79 457.92L212.11 404.15H101.67V315.13L50.83 257.8L101.67 200.47V111.45H212.11L257.79 57.68L303.47 111.45H413.91V200.47L464.75 257.8L413.91 315.13Z" fill="#004C1D" stroke="#B3DDB0" stroke-width="3.58" stroke-miterlimit="10"/>
<path d="M401.15 257.79L400.79 255.65L384.04 239.59L373.94 211.36L344.81 205.86L313.37 204.57L307.86 170.75L303.73 148.27L285.1 142.71L264.27 134.73L257.79 125.55L251.31 134.73L230.49 142.71L211.85 148.27L207.72 170.75L202.21 204.57L170.78 205.86L141.64 211.36L131.54 239.59L114.79 255.65L114.44 257.79H257.79H401.15Z" fill="#C7FBFF"/>
<path d="M114.44 257.79L114.79 259.94L131.54 276L141.64 304.22L170.78 309.73L202.21 311.01L207.72 344.83L211.85 367.32L230.49 372.88L251.31 380.85L257.79 390.03L264.27 380.85L285.1 372.88L303.73 367.32L307.86 344.83L313.37 311.01L344.81 309.73L373.94 304.22L384.04 276L400.79 259.94L401.15 257.79H257.79H114.44Z" fill="#C7FBFF"/>
<path d="M101.08 257.95C105.26 258.8 113.63 261.7 120.86 271.56C130.96 285.33 124.74 302.43 146.66 311.53C167.36 316.3 180.41 314.67 180.41 314.67L182.18 306C182.18 306 158.12 307.48 144.26 298.4C136.59 293.38 135.44 277.24 129.73 267.65C126.23 261.77 119.48 257.84 119.48 257.84V257.72C119.48 257.72 126.22 253.79 129.73 247.91C135.44 238.32 136.59 222.19 144.26 217.16C158.13 208.08 182.18 209.56 182.18 209.56L180.41 200.89C180.41 200.89 167.36 199.25 146.66 204.03C124.74 213.13 130.96 230.24 120.86 244C113.63 253.86 105.25 256.76 101.08 257.61V257.93V257.95Z" fill="#0500D5" stroke="#11005A" stroke-width="3.58" stroke-miterlimit="10"/>
<path d="M396.1 257.85C396.1 257.85 389.36 261.78 385.85 267.66C380.14 277.25 378.99 293.38 371.32 298.41C357.45 307.49 333.4 306.01 333.4 306.01L335.17 314.68C335.17 314.68 348.22 316.32 368.92 311.54C390.84 302.44 384.62 285.33 394.72 271.57C401.95 261.71 410.33 258.73 414.5 257.88V257.8C410.33 256.95 401.95 253.89 394.72 244.03C384.62 230.26 390.84 213.16 368.92 204.06C348.22 199.29 335.17 200.92 335.17 200.92L333.4 209.59C333.4 209.59 357.46 208.11 371.32 217.19C378.99 222.21 380.14 238.35 385.85 247.94C389.35 253.82 396.1 257.75 396.1 257.75V257.87V257.85Z" fill="#0500D5" stroke="#11005A" stroke-width="3.58" stroke-miterlimit="10"/>
<path d="M306 144.31C291.77 134.98 283.82 137.58 272.65 134.67C261.48 131.76 257.78 114.33 257.78 114.33C257.78 114.33 254.08 131.77 242.91 134.67C231.74 137.58 223.79 134.98 209.56 144.31C195.33 153.64 201.61 199.84 201.61 199.84L213.39 196.78C213.39 196.78 204.52 161.75 214.77 153.03C225.02 144.31 246.08 146.39 251.89 140.21C257.7 134.03 257.78 130.19 257.78 130.19C257.78 130.19 257.86 134.03 263.67 140.21C269.48 146.39 290.54 144.31 300.79 153.03C311.04 161.75 302.17 196.78 302.17 196.78L313.95 199.84C313.95 199.84 320.22 153.65 306 144.31Z" fill="#0500D5" stroke="#11005A" stroke-width="3.58" stroke-miterlimit="10"/>
<path d="M302.18 318.8C302.18 318.8 311.05 353.83 300.8 362.55C290.55 371.27 269.49 369.19 263.68 375.37C257.87 381.55 257.79 385.39 257.79 385.39C257.79 385.39 257.71 381.55 251.9 375.37C246.09 369.19 225.03 371.27 214.78 362.55C204.53 353.83 213.4 318.8 213.4 318.8L201.62 315.74C201.62 315.74 195.35 361.93 209.57 371.27C223.8 380.6 231.75 378 242.92 380.91C254.09 383.82 257.79 401.25 257.79 401.25C257.79 401.25 261.49 383.81 272.66 380.91C283.83 378 291.78 380.6 306.01 371.27C320.24 361.94 313.96 315.74 313.96 315.74L302.18 318.8Z" fill="#0500D5" stroke="#11005A" stroke-width="3.58" stroke-miterlimit="10"/>
<path d="M217.61 191.71C203.81 178.13 161.16 164.26 161.16 164.26C161.16 164.26 169.17 199.82 185.64 215.4C195.27 224.52 233.63 249.56 233.63 249.56L245.92 233.44C245.92 233.44 231.42 205.28 217.62 191.7L217.61 191.71Z" fill="#0500D5" stroke="#11005A" stroke-width="3.58" stroke-miterlimit="10"/>
<path d="M329.95 215.4C346.41 199.81 354.43 164.26 354.43 164.26C354.43 164.26 311.78 178.13 297.98 191.71C284.18 205.29 269.68 233.45 269.68 233.45L281.97 249.57C281.97 249.57 320.33 224.52 329.96 215.41L329.95 215.4Z" fill="#0500D5" stroke="#11005A" stroke-width="3.58" stroke-miterlimit="10"/>
<path d="M329.95 300.18C320.32 291.06 281.96 266.02 281.96 266.02L269.67 282.14C269.67 282.14 284.17 310.3 297.97 323.88C311.77 337.46 354.42 351.33 354.42 351.33C354.42 351.33 346.41 315.77 329.94 300.19L329.95 300.18Z" fill="#0500D5" stroke="#11005A" stroke-width="3.58" stroke-miterlimit="10"/>
<path d="M185.63 300.18C169.17 315.77 161.15 351.32 161.15 351.32C161.15 351.32 203.8 337.45 217.6 323.87C231.4 310.29 245.9 282.13 245.9 282.13L233.61 266.01C233.61 266.01 195.24 291.06 185.62 300.17L185.63 300.18Z" fill="#0500D5" stroke="#11005A" stroke-width="3.58" stroke-miterlimit="10"/>
<path d="M243.52 214.16C248.47 218.04 253.18 230.88 253.18 230.88L254.89 232.06L256.05 231.76L258.04 231.61L260.69 232.06L262.4 230.88C262.4 230.88 267.12 218.04 272.06 214.16C277.01 210.28 286.93 200.79 288.43 194.84C289.03 192.46 289.42 188.19 285.88 186.38C279.38 183.84 276.19 189.29 276.19 189.29C276.19 189.29 275.47 181.92 273.64 179.78C270.23 175.81 265.43 176.77 262.6 179.29C260.66 181.02 257.78 187.7 257.78 187.7C257.78 187.7 254.9 181.02 252.96 179.29C250.13 176.77 245.33 175.8 241.92 179.78C240.09 181.91 239.37 189.29 239.37 189.29C239.37 189.29 236.18 183.85 229.68 186.38C226.14 188.19 226.53 192.46 227.13 194.84C228.63 200.8 238.55 210.29 243.5 214.16H243.52Z" fill="#FFC9C7" stroke="#FF93B6" stroke-width="3.58" stroke-miterlimit="10"/>
<path d="M272.06 301.42C267.11 297.54 262.4 284.7 262.4 284.7L260.69 283.52L257.71 283.4L254.89 283.52L253.18 284.7C253.18 284.7 248.46 297.54 243.52 301.42C238.57 305.3 228.65 314.79 227.15 320.74C226.55 323.12 226.16 327.39 229.7 329.2C236.2 331.74 239.39 326.29 239.39 326.29C239.39 326.29 240.11 333.66 241.94 335.8C245.35 339.77 250.15 338.81 252.98 336.29C254.92 334.56 257.8 327.88 257.8 327.88C257.8 327.88 260.68 334.56 262.62 336.29C265.45 338.81 270.25 339.78 273.66 335.8C275.49 333.67 276.21 326.29 276.21 326.29C276.21 326.29 279.4 331.73 285.9 329.2C289.44 327.39 289.05 323.12 288.45 320.74C286.95 314.78 277.03 305.29 272.08 301.42H272.06Z" fill="#FFC9C7" stroke="#FF93B6" stroke-width="3.58" stroke-miterlimit="10"/>
<path d="M327.29 257.79C328.8 257.11 333.8 254.81 335.26 253.17C337.78 250.34 338.75 245.54 334.77 242.13C332.64 240.3 325.26 239.58 325.26 239.58C325.26 239.58 330.7 236.39 328.17 229.89C326.36 226.35 322.09 226.74 319.71 227.34C313.75 228.84 304.26 238.76 300.39 243.71C296.51 248.66 283.67 253.37 283.67 253.37L282.49 255.08L284.16 257.79L282.49 260.5L283.67 262.21C283.67 262.21 296.51 266.93 300.39 271.87C304.27 276.82 313.76 286.74 319.71 288.24C322.09 288.84 326.36 289.23 328.17 285.69C330.71 279.19 325.26 276 325.26 276C325.26 276 332.63 275.28 334.77 273.45C338.74 270.04 337.78 265.24 335.26 262.41C333.8 260.77 328.8 258.46 327.29 257.79Z" fill="#FFC9C7" stroke="#FF93B6" stroke-width="3.58" stroke-miterlimit="10"/>
<path d="M233.09 260.5L231.42 257.79L233.09 255.08L231.91 253.37C231.91 253.37 219.07 248.65 215.19 243.71C211.31 238.76 201.82 228.84 195.87 227.34C193.49 226.74 189.22 226.35 187.41 229.89C184.87 236.39 190.32 239.58 190.32 239.58C190.32 239.58 182.95 240.3 180.81 242.13C176.84 245.54 177.8 250.34 180.32 253.17C181.78 254.81 186.78 257.12 188.29 257.79C186.78 258.47 181.78 260.77 180.32 262.41C177.8 265.24 176.83 270.04 180.81 273.45C182.94 275.28 190.32 276 190.32 276C190.32 276 184.88 279.19 187.41 285.69C189.22 289.23 193.49 288.84 195.87 288.24C201.83 286.74 211.32 276.82 215.19 271.87C219.07 266.92 231.91 262.21 231.91 262.21L233.09 260.5Z" fill="#FFC9C7" stroke="#FF93B6" stroke-width="3.58" stroke-miterlimit="10"/>
<path d="M257.79 285.09C272.867 285.09 285.09 272.867 285.09 257.79C285.09 242.713 272.867 230.49 257.79 230.49C242.713 230.49 230.49 242.713 230.49 257.79C230.49 272.867 242.713 285.09 257.79 285.09Z" fill="#FFF548" stroke="#DF8E00" stroke-width="2.56" stroke-miterlimit="10"/>
<path d="M1.79004 1.79004V513.79H513.79V1.79004H1.79004ZM488.15 488.15H27.43V27.43H488.15V488.15Z" stroke="#B5DFB1" stroke-width="3.58" stroke-miterlimit="10"/>
</g>
<defs>
<clipPath id="clip0_27_392">
<rect width="515.58" height="515.58" fill="white"/>
</clipPath>
</defs>
</svg>
