<svg width="1036" height="287" viewBox="0 0 1036 287" fill="none" xmlns="http://www.w3.org/2000/svg">
<g clip-path="url(#clip0_18_221)">
<path d="M377.4 67.8C377.4 75.9333 375.533 83.4 371.8 90.2C368.067 96.8667 362.333 102.267 354.6 106.4C346.867 110.533 337.267 112.6 325.8 112.6H304.6V163H270.4V22.6H325.8C337 22.6 346.467 24.5333 354.2 28.4C361.933 32.2667 367.733 37.6 371.6 44.4C375.467 51.2 377.4 59 377.4 67.8ZM323.2 85.4C329.733 85.4 334.6 83.8667 337.8 80.8C341 77.7333 342.6 73.4 342.6 67.8C342.6 62.2 341 57.8667 337.8 54.8C334.6 51.7333 329.733 50.2 323.2 50.2H304.6V85.4H323.2Z" fill="#FBF5E9"/>
<path d="M419.405 50V78.4H465.205V104.8H419.405V135.6H471.205V163H385.205V22.6H471.205V50H419.405Z" fill="#FBF5E9"/>
<path d="M609.008 163H574.808L517.608 76.4V163H483.408V22.6H517.608L574.808 109.6V22.6H609.008V163Z" fill="#FBF5E9"/>
<path d="M711.198 138.2H658.798L650.398 163H614.598L665.398 22.6H704.998L755.798 163H719.598L711.198 138.2ZM702.398 111.8L684.998 60.4L667.798 111.8H702.398Z" fill="#FBF5E9"/>
<path d="M886.859 163H852.659L795.459 76.4V163H761.259V22.6H795.459L852.659 109.6V22.6H886.859V163Z" fill="#FBF5E9"/>
<path d="M994.85 67C992.317 62.3333 988.65 58.8 983.85 56.4C979.183 53.8667 973.65 52.6 967.25 52.6C956.183 52.6 947.317 56.2667 940.65 63.6C933.983 70.8 930.65 80.4667 930.65 92.6C930.65 105.533 934.117 115.667 941.05 123C948.117 130.2 957.783 133.8 970.05 133.8C978.45 133.8 985.517 131.667 991.25 127.4C997.117 123.133 1001.38 117 1004.05 109H960.65V83.8H1035.05V115.6C1032.52 124.133 1028.18 132.067 1022.05 139.4C1016.05 146.733 1008.38 152.667 999.05 157.2C989.717 161.733 979.183 164 967.45 164C953.583 164 941.183 161 930.25 155C919.45 148.867 910.983 140.4 904.85 129.6C898.85 118.8 895.85 106.467 895.85 92.6C895.85 78.7333 898.85 66.4 904.85 55.6C910.983 44.6667 919.45 36.2 930.25 30.2C941.05 24.0667 953.383 21 967.25 21C984.05 21 998.183 25.0667 1009.65 33.2C1021.25 41.3333 1028.92 52.6 1032.65 67H994.85Z" fill="#FBF5E9"/>
<path d="M385.008 219.72C386.672 220.68 387.504 222.408 387.504 224.904C387.504 227.656 386.576 230.152 384.72 232.392C382.928 234.632 380.496 236.36 377.424 237.576C374.416 238.856 371.152 239.496 367.632 239.496C361.552 239.496 357.264 237.576 354.768 233.736C352.272 229.896 351.024 224.264 351.024 216.84C351.024 211.336 351.536 206.44 352.56 202.152C353.584 197.8 355.216 192.488 357.456 186.216C350.928 196.008 343.184 209.256 334.224 225.96C333.52 227.368 332.976 228.488 332.592 229.32C332.272 230.152 332.112 231.016 332.112 231.912L332.208 233.352C332.208 233.992 331.92 234.376 331.344 234.504C329.232 235.08 327.056 235.944 324.816 237.096C323.536 237.672 322.8 237.96 322.608 237.96C322.352 237.96 322.096 237.8 321.84 237.48C321.648 237.224 321.52 236.936 321.456 236.616C322.352 236.04 322.8 234.344 322.8 231.528C322.8 228.776 322.416 224.488 321.648 218.664C320.944 212.84 319.984 205.608 318.768 196.968C315.248 205.48 311.696 212.808 308.112 218.952C304.592 225.032 300.56 229.96 296.016 233.736C291.536 237.448 286.544 239.304 281.04 239.304C276.688 239.304 272.944 238.12 269.808 235.752C266.608 233.384 265.008 229.896 265.008 225.288C265.008 222.856 265.456 220.424 266.352 217.992C267.248 215.496 268.464 213.448 270 211.848C271.472 210.248 273.136 209.448 274.992 209.448C275.568 209.448 276.176 209.576 276.816 209.832C277.456 210.024 278.128 210.248 278.832 210.504C276.976 212.36 275.472 214.664 274.32 217.416C273.168 220.168 272.592 222.856 272.592 225.48C272.592 228.488 273.36 230.76 274.896 232.296C276.496 233.768 278.736 234.504 281.616 234.504C286.416 234.504 290.832 232.52 294.864 228.552C298.896 224.584 302.64 219.144 306.096 212.232C309.616 205.256 313.232 196.552 316.944 186.12C316.304 182.728 315.824 180.328 315.504 178.92C314.48 174.056 313.968 171.304 313.968 170.664C313.968 169.512 314.48 168.68 315.504 168.168C316.592 167.656 317.968 167.4 319.632 167.4C321.808 167.4 323.344 167.88 324.24 168.84C325.136 169.8 325.584 171.336 325.584 173.448C325.584 176.84 325.2 180.648 324.432 184.872C324.752 188.648 325.808 195.336 327.6 204.936C327.792 205.96 328.24 208.424 328.944 212.328C329.712 216.168 330.256 219.528 330.576 222.408C336.336 211.528 341.168 202.76 345.072 196.104C348.976 189.384 352.88 182.984 356.784 176.904C359.088 173.32 360.816 170.728 361.968 169.128C363.12 167.528 364.112 166.44 364.944 165.864C365.776 165.224 366.64 164.904 367.536 164.904C369.648 164.904 371.664 166.312 373.584 169.128C372.304 169.64 371.024 170.696 369.744 172.296C368.464 173.832 367.312 175.88 366.288 178.44C364.624 182.6 363.184 188.264 361.968 195.432C360.816 202.6 360.24 208.904 360.24 214.344C360.24 227.016 363.952 233.352 371.376 233.352C374.768 233.352 377.584 232.104 379.824 229.608C382.128 227.112 383.856 223.816 385.008 219.72Z" fill="#FBF5E9"/>
<path d="M442.915 213.864C444.067 213.864 444.643 214.824 444.643 216.744C444.643 219.816 443.395 223.048 440.899 226.44C438.467 229.768 435.427 232.552 431.779 234.792C428.131 237.032 424.771 238.152 421.699 238.152C419.267 238.152 417.123 237.448 415.267 236.04C413.475 234.632 412.195 232.808 411.427 230.568C409.699 232.744 407.619 234.504 405.187 235.848C402.755 237.128 400.579 237.768 398.659 237.768C396.995 237.768 395.331 237.288 393.667 236.328C392.003 235.304 390.595 234.024 389.443 232.488C388.291 230.952 387.683 229.416 387.619 227.88C389.091 221.352 390.403 215.016 391.555 208.872C391.811 207.592 392.899 205.992 394.819 204.072C396.739 202.088 399.043 200.392 401.731 198.984C404.419 197.576 406.979 196.872 409.411 196.872C411.651 196.872 413.923 197.544 416.227 198.888C416.675 197.8 417.027 197.128 417.283 196.872C417.539 196.552 417.923 196.36 418.435 196.296L426.787 195.816L427.075 196.008C426.307 196.648 425.731 197.352 425.347 198.12C424.963 198.888 424.611 199.784 424.291 200.808C423.139 204.712 421.955 209.448 420.739 215.016C419.523 220.52 418.915 224.328 418.915 226.44C418.915 228.232 419.331 229.864 420.163 231.336C421.059 232.808 422.435 233.544 424.291 233.544C426.211 233.544 428.419 232.712 430.915 231.048C433.475 229.384 435.843 227.048 438.019 224.04C440.259 221.032 441.891 217.64 442.915 213.864ZM401.731 232.008C402.627 232.008 403.715 231.56 404.995 230.664C406.275 229.768 407.459 228.552 408.547 227.016C409.699 225.48 410.499 223.784 410.947 221.928L412.483 214.728C413.635 208.84 414.435 204.968 414.883 203.112C413.219 202.344 411.459 201.96 409.603 201.96C406.595 201.96 404.323 202.92 402.787 204.84C401.315 206.696 400.323 208.808 399.811 211.176L396.835 225.672C396.963 227.272 397.539 228.744 398.563 230.088C399.587 231.368 400.643 232.008 401.731 232.008Z" fill="#FBF5E9"/>
<path d="M478.198 213C479.67 213 480.406 214.056 480.406 216.168C480.406 217.256 480.214 218.376 479.83 219.528C478.934 222.344 477.078 225.16 474.262 227.976C471.51 230.792 468.182 233.128 464.278 234.984C460.438 236.776 456.47 237.672 452.374 237.672C447.83 237.672 444.342 236.52 441.91 234.216C439.542 231.848 438.358 228.616 438.358 224.52C438.358 221 439.158 214.728 440.758 205.704C442.422 196.68 444.31 187.336 446.422 177.672C448.534 167.944 450.198 160.904 451.414 156.552C454.742 144.584 459.318 138.6 465.142 138.6C468.022 138.6 470.166 139.912 471.574 142.536C472.982 145.16 473.686 148.488 473.686 152.52C473.686 160.584 471.158 170.248 466.102 181.512C461.046 192.712 454.998 203.304 447.958 213.288C447.446 217.384 447.19 220.616 447.19 222.984C447.19 226.568 447.734 229.032 448.822 230.376C449.974 231.72 451.734 232.392 454.102 232.392C457.302 232.392 460.502 231.464 463.702 229.608C466.966 227.752 469.878 225.352 472.438 222.408C474.998 219.4 476.918 216.264 478.198 213ZM460.054 157.8C458.198 164.648 456.278 172.264 454.294 180.648C452.374 188.968 450.774 196.616 449.494 203.592C454.294 195.208 458.454 186.216 461.974 176.616C465.494 167.016 467.254 159.016 467.254 152.616C467.254 150.632 467.062 149 466.678 147.72C466.294 146.44 465.75 145.8 465.046 145.8C464.406 145.8 463.734 146.6 463.03 148.2C462.39 149.736 461.398 152.936 460.054 157.8Z" fill="#FBF5E9"/>
<path d="M525.561 213.864C526.713 213.864 527.289 214.824 527.289 216.744C527.289 219.816 526.041 223.048 523.545 226.44C521.113 229.768 518.073 232.552 514.425 234.792C510.777 237.032 507.417 238.152 504.345 238.152C501.913 238.152 499.769 237.448 497.913 236.04C496.121 234.632 494.841 232.808 494.073 230.568C492.345 232.744 490.265 234.504 487.833 235.848C485.401 237.128 483.225 237.768 481.305 237.768C479.641 237.768 477.977 237.288 476.313 236.328C474.649 235.304 473.241 234.024 472.089 232.488C470.937 230.952 470.329 229.416 470.265 227.88C471.737 221.352 473.049 215.016 474.201 208.872C474.457 207.592 475.545 205.992 477.465 204.072C479.385 202.088 481.689 200.392 484.377 198.984C487.065 197.576 489.625 196.872 492.057 196.872C494.297 196.872 496.569 197.544 498.873 198.888C499.321 197.8 499.673 197.128 499.929 196.872C500.185 196.552 500.569 196.36 501.081 196.296L509.433 195.816L509.721 196.008C508.953 196.648 508.377 197.352 507.993 198.12C507.609 198.888 507.257 199.784 506.937 200.808C505.785 204.712 504.601 209.448 503.385 215.016C502.169 220.52 501.561 224.328 501.561 226.44C501.561 228.232 501.977 229.864 502.809 231.336C503.705 232.808 505.081 233.544 506.937 233.544C508.857 233.544 511.065 232.712 513.561 231.048C516.121 229.384 518.489 227.048 520.665 224.04C522.905 221.032 524.537 217.64 525.561 213.864ZM484.377 232.008C485.273 232.008 486.361 231.56 487.641 230.664C488.921 229.768 490.105 228.552 491.193 227.016C492.345 225.48 493.145 223.784 493.593 221.928L495.129 214.728C496.281 208.84 497.081 204.968 497.529 203.112C495.865 202.344 494.105 201.96 492.249 201.96C489.241 201.96 486.969 202.92 485.433 204.84C483.961 206.696 482.969 208.808 482.457 211.176L479.481 225.672C479.609 227.272 480.185 228.744 481.209 230.088C482.233 231.368 483.289 232.008 484.377 232.008Z" fill="#FBF5E9"/>
<path d="M546.06 196.872C547.596 196.872 549.388 197.064 551.436 197.448C553.548 197.768 554.7 198.312 554.892 199.08C553.868 204.072 552.62 209.864 551.148 216.456C549.676 223.048 548.364 228.456 547.212 232.68C543.308 247.4 537.548 260.008 529.932 270.504C522.38 281 511.884 286.248 498.444 286.248C492.428 286.248 487.948 285.128 485.004 282.888C482.06 280.712 480.588 277.992 480.588 274.728C480.588 272.552 481.26 270.6 482.604 268.872C484.524 271.304 487.244 273.32 490.764 274.92C494.284 276.52 498.38 277.32 503.052 277.32C508.556 277.32 513.452 275.944 517.74 273.192C522.028 270.44 525.964 265.768 529.548 259.176C533.132 252.584 536.46 243.592 539.532 232.2C537.612 233.544 535.66 234.696 533.676 235.656C531.692 236.552 530.06 237 528.78 237C527.5 237 526.028 236.616 524.364 235.848C522.7 235.016 521.26 233.96 520.044 232.68C518.892 231.4 518.316 230.056 518.316 228.648C518.572 227.368 519.084 224.456 519.852 219.912C521.004 212.168 522.22 205.448 523.5 199.752C523.884 197.96 525.228 197.064 527.532 197.064C528.3 197.064 529.292 197.128 530.508 197.256C531.724 197.32 532.524 197.416 532.908 197.544C531.884 202.216 530.508 209.32 528.78 218.856C528.204 222.44 527.724 225.096 527.34 226.824C527.276 228.232 527.66 229.416 528.492 230.376C529.324 231.272 530.284 231.72 531.372 231.72C532.716 231.72 534.38 231.08 536.364 229.8C538.412 228.456 539.948 227.112 540.972 225.768L542.796 215.4C544.524 205.992 545.612 199.816 546.06 196.872Z" fill="#FBF5E9"/>
<path d="M564.46 238.248C562.092 238.248 559.916 237.832 557.932 237C555.948 236.168 554.38 235.112 553.228 233.832C552.076 232.488 551.5 231.112 551.5 229.704C551.5 228.424 551.948 227.432 552.844 226.728C553.74 225.96 554.764 225.512 555.916 225.384C556.684 227.944 557.836 229.96 559.372 231.432C560.908 232.904 562.796 233.64 565.036 233.64C567.34 233.64 569.228 232.936 570.7 231.528C572.172 230.056 572.908 228.36 572.908 226.44C572.908 224.84 572.428 223.464 571.468 222.312C570.508 221.096 568.972 219.656 566.86 217.992C564.684 216.264 563.052 214.728 561.964 213.384C560.876 212.04 560.332 210.44 560.332 208.584C560.332 206.536 561.004 204.616 562.348 202.824C563.756 201.032 565.516 199.624 567.628 198.6C569.804 197.512 571.948 196.968 574.06 196.968C576.428 196.968 578.7 197.544 580.876 198.696C583.052 199.784 584.14 201.064 584.14 202.536C584.14 203.24 583.884 203.944 583.372 204.648C582.86 205.352 582.092 205.928 581.068 206.376C580.172 204.84 579.212 203.688 578.188 202.92C577.228 202.152 576.044 201.768 574.636 201.768C573.1 201.768 571.756 202.216 570.604 203.112C569.452 203.944 568.876 205.128 568.876 206.664C568.876 208.008 569.356 209.256 570.316 210.408C571.276 211.496 572.748 212.84 574.732 214.44C577.1 216.36 578.86 218.056 580.012 219.528C581.228 220.936 581.836 222.632 581.836 224.616C581.836 226.856 581.004 229.032 579.34 231.144C577.74 233.256 575.596 234.984 572.908 236.328C570.284 237.608 567.468 238.248 564.46 238.248Z" fill="#FBF5E9"/>
<path d="M596 237.672C593.056 237.672 590.72 236.904 588.992 235.368C587.264 233.768 586.4 231.24 586.4 227.784C586.4 226.952 586.432 226.312 586.496 225.864L589.568 211.272C590.848 204.744 591.68 200.744 592.064 199.272C592.384 198.504 592.992 197.896 593.888 197.448C594.784 196.936 595.808 196.68 596.96 196.68C597.984 196.68 598.816 196.904 599.456 197.352C600.16 197.736 600.544 198.184 600.608 198.696C599.264 204.648 597.44 213.448 595.136 225.096C595.072 225.608 595.04 226.28 595.04 227.112C595.04 228.904 595.424 230.184 596.192 230.952C596.96 231.72 598.08 232.104 599.552 232.104C602.112 232.104 604.864 231.208 607.808 229.416C610.752 227.56 613.472 225.288 615.968 222.6C618.528 219.848 620.512 217.128 621.92 214.44C622.88 214.824 623.36 215.464 623.36 216.36C623.36 217 623.232 217.672 622.976 218.376C622.72 219.016 622.56 219.432 622.496 219.624C621.28 222.504 619.168 225.352 616.16 228.168C613.216 230.984 609.888 233.288 606.176 235.08C602.528 236.808 599.136 237.672 596 237.672ZM598.112 186.696C596.576 186.696 595.392 186.248 594.56 185.352C593.792 184.456 593.408 183.24 593.408 181.704C593.408 179.72 593.984 178.056 595.136 176.712C596.288 175.368 597.856 174.696 599.84 174.696C601.376 174.696 602.56 175.112 603.392 175.944C604.224 176.776 604.64 177.96 604.64 179.496C604.64 181.48 604.032 183.176 602.816 184.584C601.6 185.992 600.032 186.696 598.112 186.696Z" fill="#FBF5E9"/>
<path d="M667.474 213.864C668.626 213.864 669.202 214.824 669.202 216.744C669.202 219.816 667.954 223.048 665.458 226.44C663.026 229.768 659.986 232.552 656.338 234.792C652.69 237.032 649.33 238.152 646.258 238.152C643.826 238.152 641.682 237.448 639.826 236.04C638.034 234.632 636.754 232.808 635.986 230.568C634.258 232.744 632.178 234.504 629.746 235.848C627.314 237.128 625.138 237.768 623.218 237.768C621.554 237.768 619.89 237.288 618.226 236.328C616.562 235.304 615.154 234.024 614.002 232.488C612.85 230.952 612.242 229.416 612.178 227.88C613.65 221.352 614.962 215.016 616.114 208.872C616.37 207.592 617.458 205.992 619.378 204.072C621.298 202.088 623.602 200.392 626.29 198.984C628.978 197.576 631.538 196.872 633.97 196.872C636.21 196.872 638.482 197.544 640.786 198.888C641.234 197.8 641.586 197.128 641.842 196.872C642.098 196.552 642.482 196.36 642.994 196.296L651.346 195.816L651.634 196.008C650.866 196.648 650.29 197.352 649.906 198.12C649.522 198.888 649.17 199.784 648.85 200.808C647.698 204.712 646.514 209.448 645.298 215.016C644.082 220.52 643.474 224.328 643.474 226.44C643.474 228.232 643.89 229.864 644.722 231.336C645.618 232.808 646.994 233.544 648.85 233.544C650.77 233.544 652.978 232.712 655.474 231.048C658.034 229.384 660.402 227.048 662.578 224.04C664.818 221.032 666.45 217.64 667.474 213.864ZM626.29 232.008C627.186 232.008 628.274 231.56 629.554 230.664C630.834 229.768 632.018 228.552 633.106 227.016C634.258 225.48 635.058 223.784 635.506 221.928L637.042 214.728C638.194 208.84 638.994 204.968 639.442 203.112C637.778 202.344 636.018 201.96 634.162 201.96C631.154 201.96 628.882 202.92 627.346 204.84C625.874 206.696 624.882 208.808 624.37 211.176L621.394 225.672C621.522 227.272 622.098 228.744 623.122 230.088C624.146 231.368 625.202 232.008 626.29 232.008Z" fill="#FBF5E9"/>
<mask id="mask0_18_221" style="mask-type:luminance" maskUnits="userSpaceOnUse" x="0" y="0" width="259" height="259">
<path d="M258.685 0.89502H0.89502V258.685H258.685V0.89502Z" fill="white"/>
</mask>
<g mask="url(#mask0_18_221)">
<path d="M257.79 1.79004H1.79004V257.79H257.79V1.79004Z" fill="#FFF8CA"/>
<path d="M129.79 1.79004H1.79004V129.79V257.79H129.79H257.79V129.79H234.16L207.85 158.46V202.97H152.63L129.79 229.855L106.95 202.97H51.735V158.46L25.425 129.79L51.735 101.125V56.61H106.95L129.79 29.73L152.63 56.61H207.85V101.125L234.16 129.79H257.79V1.79004H129.79Z" fill="#004C1D"/>
<path d="M66.2449 16.995C38.7099 17.63 44.4499 46.51 44.4499 46.51L49.3249 46.815C49.3249 46.815 45.6549 20.505 67.1199 21.985C88.5849 23.465 89.8398 46.51 89.8398 46.51L97.4498 46.365C97.4498 46.365 93.7799 16.36 66.2449 16.995Z" fill="#B3DDB0" stroke="#004C1D" stroke-width="1.28" stroke-miterlimit="10"/>
<path d="M192.465 21.985C213.93 20.505 210.26 46.815 210.26 46.815L215.135 46.51C215.135 46.51 220.87 17.63 193.34 16.995C165.805 16.36 162.135 46.365 162.135 46.365L169.745 46.51C169.745 46.51 171 23.465 192.465 21.985Z" fill="#B3DDB0" stroke="#004C1D" stroke-width="1.28" stroke-miterlimit="10"/>
<path d="M210.26 212.765C210.26 212.765 213.93 239.075 192.465 237.595C171 236.115 169.745 213.07 169.745 213.07L162.135 213.215C162.135 213.215 165.805 243.22 193.34 242.585C220.875 241.95 215.135 213.07 215.135 213.07L210.26 212.765Z" fill="#B3DDB0" stroke="#004C1D" stroke-width="1.28" stroke-miterlimit="10"/>
<path d="M67.1199 237.595C45.6549 239.075 49.3249 212.765 49.3249 212.765L44.4499 213.07C44.4499 213.07 38.7149 241.95 66.2449 242.585C93.7799 243.22 97.4499 213.215 97.4499 213.215L89.8399 213.07C89.8399 213.07 88.5849 236.115 67.1199 237.595Z" fill="#B3DDB0" stroke="#004C1D" stroke-width="1.28" stroke-miterlimit="10"/>
<path d="M20.3749 66.305C19.0999 81.96 41.9449 92.515 41.9449 92.515V85.905C41.9449 85.905 24.7999 80.31 25.9199 67.93C27.2199 53.55 41.9449 55.055 41.9449 55.055V51.365C41.9449 51.365 21.6499 50.65 20.3749 66.305Z" fill="#B3DDB0" stroke="#004C1D" stroke-width="1.28" stroke-miterlimit="10"/>
<path d="M239.205 66.305C237.93 50.65 217.635 51.365 217.635 51.365V55.055C217.635 55.055 232.36 53.55 233.66 67.93C234.78 80.305 217.635 85.905 217.635 85.905V92.515C217.635 92.515 240.48 81.96 239.205 66.305Z" fill="#B3DDB0" stroke="#004C1D" stroke-width="1.28" stroke-miterlimit="10"/>
<path d="M217.64 167.07V173.68C217.64 173.68 234.785 179.275 233.665 191.655C232.365 206.035 217.64 204.53 217.64 204.53V208.22C217.64 208.22 237.935 208.935 239.21 193.28C240.485 177.625 217.64 167.07 217.64 167.07Z" fill="#B3DDB0" stroke="#004C1D" stroke-width="1.28" stroke-miterlimit="10"/>
<path d="M20.3749 193.275C21.6499 208.93 41.9449 208.215 41.9449 208.215V204.525C41.9449 204.525 27.2199 206.03 25.9199 191.65C24.7999 179.275 41.9449 173.675 41.9449 173.675V167.065C41.9449 167.065 19.0999 177.62 20.3749 193.275Z" fill="#B3DDB0" stroke="#004C1D" stroke-width="1.28" stroke-miterlimit="10"/>
<path d="M45.1699 21.43C36.7499 19.74 28.7649 22.63 28.7649 22.63L16.6299 16.985L21.8299 29.985C21.8299 29.985 18.2349 33.12 19.5749 46.58C20.9149 60.04 41.9449 68.835 41.9449 68.835V62.565C41.9449 62.565 16.2449 48.11 28.6349 30.865C34.0899 23.27 43.1949 23.905 50.4299 28.655C59.6299 34.69 66.4899 46.45 66.4899 46.45L73.5249 46.245C73.5249 46.245 69.3099 38.81 63.3549 32.785C57.5249 26.885 50.0099 22.405 45.1649 21.435L45.1699 21.43Z" fill="#B3DDB0" stroke="#004C1D" stroke-width="1.28" stroke-miterlimit="10"/>
<path d="M209.15 28.65C216.385 23.905 225.49 23.27 230.945 30.86C243.335 48.105 217.635 62.56 217.635 62.56V68.83C217.635 68.83 238.67 60.035 240.005 46.575C241.345 33.115 237.75 29.98 237.75 29.98L242.95 16.98L230.815 22.625C230.815 22.625 222.83 19.74 214.41 21.425C209.57 22.395 202.05 26.88 196.22 32.775C190.265 38.8 186.05 46.235 186.05 46.235L193.085 46.44C193.085 46.44 199.95 34.675 209.145 28.645L209.15 28.65Z" fill="#B3DDB0" stroke="#004C1D" stroke-width="1.28" stroke-miterlimit="10"/>
<path d="M240.01 213C238.67 199.54 217.64 190.745 217.64 190.745V197.015C217.64 197.015 243.34 211.47 230.95 228.715C225.495 236.31 216.39 235.675 209.155 230.925C199.955 224.89 193.095 213.13 193.095 213.13L186.06 213.335C186.06 213.335 190.275 220.77 196.23 226.795C202.06 232.695 209.575 237.175 214.42 238.145C222.84 239.835 230.825 236.945 230.825 236.945L242.96 242.59L237.76 229.59C237.76 229.59 241.355 226.455 240.015 212.995L240.01 213Z" fill="#B3DDB0" stroke="#004C1D" stroke-width="1.28" stroke-miterlimit="10"/>
<path d="M50.4299 230.93C43.1949 235.675 34.0899 236.31 28.6349 228.72C16.2449 211.475 41.9449 197.02 41.9449 197.02V190.75C41.9449 190.75 20.9099 199.545 19.5749 213.005C18.2349 226.465 21.8299 229.6 21.8299 229.6L16.6299 242.6L28.7649 236.955C28.7649 236.955 36.7499 239.84 45.1699 238.155C50.0099 237.185 57.5299 232.7 63.3599 226.805C69.3149 220.78 73.5299 213.345 73.5299 213.345L66.4949 213.14C66.4949 213.14 59.6299 224.905 50.4349 230.935L50.4299 230.93Z" fill="#B3DDB0" stroke="#004C1D" stroke-width="1.28" stroke-miterlimit="10"/>
<path d="M217.64 98.215V46.515L159.125 46.35L129.79 14.605L100.455 46.35L41.94 46.515V98.215L14.605 129.79L41.94 161.365V213.065L100.455 213.23L129.79 244.975L159.125 213.23L217.64 213.065V161.365L244.975 129.79L217.64 98.215ZM207.85 158.46V202.97H152.63L129.79 229.855L106.95 202.97H51.73V158.46L26.31 129.795L51.73 101.13V56.62H106.95L129.79 29.735L152.63 56.62H207.85V101.13L233.27 129.795L207.85 158.46Z" fill="#004C1D" stroke="#B3DDB0" stroke-width="1.79" stroke-miterlimit="10"/>
<path d="M201.47 129.79L201.29 128.72L192.915 120.69L187.865 106.575L173.3 103.825L157.58 103.18L154.825 86.27L152.76 75.03L143.445 72.25L133.03 68.26L129.79 63.67L126.55 68.26L116.14 72.25L106.82 75.03L104.755 86.27L102 103.18L86.285 103.825L71.715 106.575L66.665 120.69L58.29 128.72L58.115 129.79H129.79H201.47Z" fill="#C7FBFF"/>
<path d="M58.115 129.79L58.29 130.865L66.665 138.895L71.715 153.005L86.285 155.76L102 156.4L104.755 173.31L106.82 184.555L116.14 187.335L126.55 191.32L129.79 195.91L133.03 191.32L143.445 187.335L152.76 184.555L154.825 173.31L157.58 156.4L173.3 155.76L187.865 153.005L192.915 138.895L201.29 130.865L201.47 129.79H129.79H58.115Z" fill="#C7FBFF"/>
<path d="M51.4351 129.87C53.5251 130.295 57.7101 131.745 61.3251 136.675C66.3751 143.56 63.2651 152.11 74.2251 156.66C84.5751 159.045 91.1001 158.23 91.1001 158.23L91.9851 153.895C91.9851 153.895 79.9551 154.635 73.0251 150.095C69.1901 147.585 68.6151 139.515 65.7601 134.72C64.0101 131.78 60.6351 129.815 60.6351 129.815V129.755C60.6351 129.755 64.0051 127.79 65.7601 124.85C68.6151 120.055 69.1901 111.99 73.0251 109.475C79.9601 104.935 91.9851 105.675 91.9851 105.675L91.1001 101.34C91.1001 101.34 84.5751 100.52 74.2251 102.91C63.2651 107.46 66.3751 116.015 61.3251 122.895C57.7101 127.825 53.5201 129.275 51.4351 129.7V129.86V129.87Z" fill="#0500D5" stroke="#11005A" stroke-width="1.79" stroke-miterlimit="10"/>
<path d="M198.945 129.82C198.945 129.82 195.575 131.785 193.82 134.725C190.965 139.52 190.39 147.585 186.555 150.1C179.62 154.64 167.595 153.9 167.595 153.9L168.48 158.235C168.48 158.235 175.005 159.055 185.355 156.665C196.315 152.115 193.205 143.56 198.255 136.68C201.87 131.75 206.06 130.26 208.145 129.835V129.795C206.06 129.37 201.87 127.84 198.255 122.91C193.205 116.025 196.315 107.475 185.355 102.925C175.005 100.54 168.48 101.355 168.48 101.355L167.595 105.69C167.595 105.69 179.625 104.95 186.555 109.49C190.39 112 190.965 120.07 193.82 124.865C195.57 127.805 198.945 129.77 198.945 129.77V129.83V129.82Z" fill="#0500D5" stroke="#11005A" stroke-width="1.79" stroke-miterlimit="10"/>
<path d="M153.895 73.0501C146.78 68.3851 142.805 69.6851 137.22 68.2301C131.635 66.7751 129.785 58.0601 129.785 58.0601C129.785 58.0601 127.935 66.7801 122.35 68.2301C116.765 69.6851 112.79 68.3851 105.675 73.0501C98.5599 77.7151 101.7 100.815 101.7 100.815L107.59 99.2851C107.59 99.2851 103.155 81.7701 108.28 77.4101C113.405 73.0501 123.935 74.0901 126.84 71.0001C129.745 67.9101 129.785 65.9901 129.785 65.9901C129.785 65.9901 129.825 67.9101 132.73 71.0001C135.635 74.0901 146.165 73.0501 151.29 77.4101C156.415 81.7701 151.98 99.2851 151.98 99.2851L157.87 100.815C157.87 100.815 161.005 77.7201 153.895 73.0501Z" fill="#0500D5" stroke="#11005A" stroke-width="1.79" stroke-miterlimit="10"/>
<path d="M151.985 160.295C151.985 160.295 156.42 177.81 151.295 182.17C146.17 186.53 135.64 185.49 132.735 188.58C129.83 191.67 129.79 193.59 129.79 193.59C129.79 193.59 129.75 191.67 126.845 188.58C123.94 185.49 113.41 186.53 108.285 182.17C103.16 177.81 107.595 160.295 107.595 160.295L101.705 158.765C101.705 158.765 98.57 181.86 105.68 186.53C112.795 191.195 116.77 189.895 122.355 191.35C127.94 192.805 129.79 201.52 129.79 201.52C129.79 201.52 131.64 192.8 137.225 191.35C142.81 189.895 146.785 191.195 153.9 186.53C161.015 181.865 157.875 158.765 157.875 158.765L151.985 160.295Z" fill="#0500D5" stroke="#11005A" stroke-width="1.79" stroke-miterlimit="10"/>
<path d="M109.7 96.75C102.8 89.96 81.4749 83.025 81.4749 83.025C81.4749 83.025 85.4799 100.805 93.7149 108.595C98.5299 113.155 117.71 125.675 117.71 125.675L123.855 117.615C123.855 117.615 116.605 103.535 109.705 96.745L109.7 96.75Z" fill="#0500D5" stroke="#11005A" stroke-width="1.79" stroke-miterlimit="10"/>
<path d="M165.87 108.595C174.1 100.8 178.11 83.025 178.11 83.025C178.11 83.025 156.785 89.96 149.885 96.75C142.985 103.54 135.735 117.62 135.735 117.62L141.88 125.68C141.88 125.68 161.06 113.155 165.875 108.6L165.87 108.595Z" fill="#0500D5" stroke="#11005A" stroke-width="1.79" stroke-miterlimit="10"/>
<path d="M165.87 150.985C161.055 146.425 141.875 133.905 141.875 133.905L135.73 141.965C135.73 141.965 142.98 156.045 149.88 162.835C156.78 169.625 178.105 176.56 178.105 176.56C178.105 176.56 174.1 158.78 165.865 150.99L165.87 150.985Z" fill="#0500D5" stroke="#11005A" stroke-width="1.79" stroke-miterlimit="10"/>
<path d="M93.71 150.985C85.48 158.78 81.47 176.555 81.47 176.555C81.47 176.555 102.795 169.62 109.695 162.83C116.595 156.04 123.845 141.96 123.845 141.96L117.7 133.9C117.7 133.9 98.515 146.425 93.705 150.98L93.71 150.985Z" fill="#0500D5" stroke="#11005A" stroke-width="1.79" stroke-miterlimit="10"/>
<path d="M122.655 107.975C125.13 109.915 127.485 116.335 127.485 116.335L128.34 116.925L128.92 116.775L129.915 116.7L131.24 116.925L132.095 116.335C132.095 116.335 134.455 109.915 136.925 107.975C139.4 106.035 144.36 101.29 145.11 98.315C145.41 97.125 145.605 94.99 143.835 94.085C140.585 92.815 138.99 95.54 138.99 95.54C138.99 95.54 138.63 91.855 137.715 90.785C136.01 88.8 133.61 89.28 132.195 90.54C131.225 91.405 129.785 94.745 129.785 94.745C129.785 94.745 128.345 91.405 127.375 90.54C125.96 89.28 123.56 88.795 121.855 90.785C120.94 91.85 120.58 95.54 120.58 95.54C120.58 95.54 118.985 92.82 115.735 94.085C113.965 94.99 114.16 97.125 114.46 98.315C115.21 101.295 120.17 106.04 122.645 107.975H122.655Z" fill="#FFC9C7" stroke="#FF93B6" stroke-width="1.79" stroke-miterlimit="10"/>
<path d="M136.925 151.605C134.45 149.665 132.095 143.245 132.095 143.245L131.24 142.655L129.75 142.595L128.34 142.655L127.485 143.245C127.485 143.245 125.125 149.665 122.655 151.605C120.18 153.545 115.22 158.29 114.47 161.265C114.17 162.455 113.975 164.59 115.745 165.495C118.995 166.765 120.59 164.04 120.59 164.04C120.59 164.04 120.95 167.725 121.865 168.795C123.57 170.78 125.97 170.3 127.385 169.04C128.355 168.175 129.795 164.835 129.795 164.835C129.795 164.835 131.235 168.175 132.205 169.04C133.62 170.3 136.02 170.785 137.725 168.795C138.64 167.73 139 164.04 139 164.04C139 164.04 140.595 166.76 143.845 165.495C145.615 164.59 145.42 162.455 145.12 161.265C144.37 158.285 139.41 153.54 136.935 151.605H136.925Z" fill="#FFC9C7" stroke="#FF93B6" stroke-width="1.79" stroke-miterlimit="10"/>
<path d="M164.54 129.79C165.295 129.45 167.795 128.3 168.525 127.48C169.785 126.065 170.27 123.665 168.28 121.96C167.215 121.045 163.525 120.685 163.525 120.685C163.525 120.685 166.245 119.09 164.98 115.84C164.075 114.07 161.94 114.265 160.75 114.565C157.77 115.315 153.025 120.275 151.09 122.75C149.15 125.225 142.73 127.58 142.73 127.58L142.14 128.435L142.975 129.79L142.14 131.145L142.73 132C142.73 132 149.15 134.36 151.09 136.83C153.03 139.305 157.775 144.265 160.75 145.015C161.94 145.315 164.075 145.51 164.98 143.74C166.25 140.49 163.525 138.895 163.525 138.895C163.525 138.895 167.21 138.535 168.28 137.62C170.265 135.915 169.785 133.515 168.525 132.1C167.795 131.28 165.295 130.125 164.54 129.79Z" fill="#FFC9C7" stroke="#FF93B6" stroke-width="1.79" stroke-miterlimit="10"/>
<path d="M117.44 131.145L116.605 129.79L117.44 128.435L116.85 127.58C116.85 127.58 110.43 125.22 108.49 122.75C106.55 120.275 101.805 115.315 98.8299 114.565C97.6399 114.265 95.5049 114.07 94.5999 115.84C93.3299 119.09 96.0549 120.685 96.0549 120.685C96.0549 120.685 92.3699 121.045 91.2999 121.96C89.3149 123.665 89.7949 126.065 91.0549 127.48C91.7849 128.3 94.2849 129.455 95.0399 129.79C94.2849 130.13 91.7849 131.28 91.0549 132.1C89.7949 133.515 89.3099 135.915 91.2999 137.62C92.3649 138.535 96.0549 138.895 96.0549 138.895C96.0549 138.895 93.3349 140.49 94.5999 143.74C95.5049 145.51 97.6399 145.315 98.8299 145.015C101.81 144.265 106.555 139.305 108.49 136.83C110.43 134.355 116.85 132 116.85 132L117.44 131.145Z" fill="#FFC9C7" stroke="#FF93B6" stroke-width="1.79" stroke-miterlimit="10"/>
<path d="M129.79 143.44C137.329 143.44 143.44 137.329 143.44 129.79C143.44 122.251 137.329 116.14 129.79 116.14C122.251 116.14 116.14 122.251 116.14 129.79C116.14 137.329 122.251 143.44 129.79 143.44Z" fill="#FFF548" stroke="#DF8E00" stroke-width="1.28" stroke-miterlimit="10"/>
<path d="M1.79004 1.79004V257.79H257.79V1.79004H1.79004ZM244.97 244.97H14.61V14.61H244.97V244.97Z" stroke="#B5DFB1" stroke-width="1.79" stroke-miterlimit="10"/>
</g>
</g>
<defs>
<clipPath id="clip0_18_221">
<rect width="1036" height="287" fill="white"/>
</clipPath>
</defs>
</svg>
